  0
SECTION
  2
HEADER
  9
$ACADVER
  1
AC1014
  9
$ACADMAINTVER
 70
     0
  9
$DWGCODEPAGE
  3
ANSI_1252
  9
$INSBASE
 10
0.0
 20
0.0
 30
0.0
  9
$EXTMIN
 10
0.0
 20
0.0
 30
0.0
  9
$EXTMAX
 10
304.0
 20
304.0
 30
0.0
  9
$LIMMIN
 10
0.0
 20
0.0
  9
$LIMMAX
 10
12.0
 20
9.0
  9
$ORTHOMODE
 70
     0
  9
$REGENMODE
 70
     1
  9
$FILLMODE
 70
     0
  9
$QTEXTMODE
 70
     0
  9
$MIRRTEXT
 70
     1
  9
$DRAGMODE
 70
     2
  9
$LTSCALE
 40
1.0
  9
$OSMODE
 70
    37
  9
$ATTMODE
 70
     1
  9
$TEXTSIZE
 40
0.2
  9
$TRACEWID
 40
0.05
  9
$TEXTSTYLE
  7
STANDARD
  9
$CLAYER
  8
0
  9
$CELTYPE
  6
BYLAYER
  9
$CECOLOR
 62
   256
  9
$CELTSCALE
 40
1.0
  9
$DELOBJ
 70
     1
  9
$DISPSILH
 70
     0
  9
$DIMSCALE
 40
1.0
  9
$DIMASZ
 40
0.18
  9
$DIMEXO
 40
0.0625
  9
$DIMDLI
 40
0.38
  9
$DIMRND
 40
0.0
  9
$DIMDLE
 40
0.0
  9
$DIMEXE
 40
0.18
  9
$DIMTP
 40
0.0
  9
$DIMTM
 40
0.0
  9
$DIMTXT
 40
0.18
  9
$DIMCEN
 40
0.09
  9
$DIMTSZ
 40
0.0
  9
$DIMTOL
 70
     0
  9
$DIMLIM
 70
     0
  9
$DIMTIH
 70
     0
  9
$DIMTOH
 70
     0
  9
$DIMSE1
 70
     0
  9
$DIMSE2
 70
     0
  9
$DIMTAD
 70
     1
  9
$DIMZIN
 70
     0
  9
$DIMBLK
  1

  9
$DIMASO
 70
     1
  9
$DIMSHO
 70
     1
  9
$DIMPOST
  1

  9
$DIMAPOST
  1

  9
$DIMALT
 70
     0
  9
$DIMALTD
 70
     2
  9
$DIMALTF
 40
25.4
  9
$DIMLFAC
 40
1.0
  9
$DIMTOFL
 70
     0
  9
$DIMTVP
 40
0.0
  9
$DIMTIX
 70
     0
  9
$DIMSOXD
 70
     0
  9
$DIMSAH
 70
     0
  9
$DIMBLK1
  1

  9
$DIMBLK2
  1

  9
$DIMSTYLE
  2
STANDARD
  9
$DIMCLRD
 70
     0
  9
$DIMCLRE
 70
     0
  9
$DIMCLRT
 70
     0
  9
$DIMTFAC
 40
1.0
  9
$DIMGAP
 40
0.09
  9
$DIMJUST
 70
     0
  9
$DIMSD1
 70
     0
  9
$DIMSD2
 70
     0
  9
$DIMTOLJ
 70
     1
  9
$DIMTZIN
 70
     0
  9
$DIMALTZ
 70
     0
  9
$DIMALTTZ
 70
     0
  9
$DIMFIT
 70
     5
  9
$DIMUPT
 70
     0
  9
$DIMUNIT
 70
     2
  9
$DIMDEC
 70
     2
  9
$DIMTDEC
 70
     4
  9
$DIMALTU
 70
     2
  9
$DIMALTTD
 70
     2
  9
$DIMTXSTY
  7
STANDARD
  9
$DIMAUNIT
 70
     0
  9
$LUNITS
 70
     2
  9
$LUPREC
 70
     4
  9
$SKETCHINC
 40
0.1
  9
$FILLETRAD
 40
0.5
  9
$AUNITS
 70
     0
  9
$AUPREC
 70
     0
  9
$MENU
  1
.
  9
$ELEVATION
 40
0.0
  9
$PELEVATION
 40
0.0
  9
$THICKNESS
 40
0.0
  9
$LIMCHECK
 70
     0
  9
$BLIPMODE
 70
     0
  9
$CHAMFERA
 40
0.5
  9
$CHAMFERB
 40
0.5
  9
$CHAMFERC
 40
1.0
  9
$CHAMFERD
 40
0.0
  9
$SKPOLY
 70
     0
  9
$TDCREATE
 40
2450772.666465926
  9
$TDUPDATE
 40
2459287.466747685
  9
$TDINDWG
 40
0.0011564931
  9
$TDUSRTIMER
 40
0.0011564931
  9
$USRTIMER
 70
     1
  9
$ANGBASE
 50
0.0
  9
$ANGDIR
 70
     0
  9
$PDMODE
 70
     0
  9
$PDSIZE
 40
0.0
  9
$PLINEWID
 40
0.0
  9
$COORDS
 70
     1
  9
$SPLFRAME
 70
     0
  9
$SPLINETYPE
 70
     6
  9
$SPLINESEGS
 70
     8
  9
$ATTDIA
 70
     0
  9
$ATTREQ
 70
     1
  9
$HANDLING
 70
     1
  9
$HANDSEED
  5
11B
  9
$SURFTAB1
 70
     6
  9
$SURFTAB2
 70
     6
  9
$SURFTYPE
 70
     6
  9
$SURFU
 70
     6
  9
$SURFV
 70
     6
  9
$UCSNAME
  2

  9
$UCSORG
 10
0.0
 20
0.0
 30
0.0
  9
$UCSXDIR
 10
1.0
 20
0.0
 30
0.0
  9
$UCSYDIR
 10
0.0
 20
1.0
 30
0.0
  9
$PUCSNAME
  2

  9
$PUCSORG
 10
0.0
 20
0.0
 30
0.0
  9
$PUCSXDIR
 10
1.0
 20
0.0
 30
0.0
  9
$PUCSYDIR
 10
0.0
 20
1.0
 30
0.0
  9
$USERI1
 70
     0
  9
$USERI2
 70
     0
  9
$USERI3
 70
     0
  9
$USERI4
 70
     0
  9
$USERI5
 70
     0
  9
$USERR1
 40
0.0
  9
$USERR2
 40
0.0
  9
$USERR3
 40
0.0
  9
$USERR4
 40
0.0
  9
$USERR5
 40
0.0
  9
$WORLDVIEW
 70
     1
  9
$SHADEDGE
 70
     3
  9
$SHADEDIF
 70
    70
  9
$TILEMODE
 70
     1
  9
$MAXACTVP
 70
    48
  9
$PINSBASE
 10
0.0
 20
0.0
 30
0.0
  9
$PLIMCHECK
 70
     0
  9
$PEXTMIN
 10
0.0
 20
0.0
 30
0.0
  9
$PEXTMAX
 10
0.0
 20
0.0
 30
0.0
  9
$PLIMMIN
 10
0.0
 20
0.0
  9
$PLIMMAX
 10
12.0
 20
9.0
  9
$UNITMODE
 70
     0
  9
$VISRETAIN
 70
     1
  9
$PLINEGEN
 70
     0
  9
$PSLTSCALE
 70
     1
  9
$TREEDEPTH
 70
  3020
  9
$PICKSTYLE
 70
     1
  9
$CMLSTYLE
  2
STANDARD
  9
$CMLJUST
 70
     0
  9
$CMLSCALE
 40
1.0
  9
$PROXYGRAPHICS
 70
     1
  9
$MEASUREMENT
 70
     0
  0
ENDSEC
  0
SECTION
  2
CLASSES
  0
CLASS
  1
LWPOLYLINE
  2
AcDbPolyline
  3
ObjectDBX Classes
 90
       20
280
     0
281
     1
  0
CLASS
  1
IMAGE
  2
AcDbRasterImage
  3
ISM
 90
       21
280
     0
281
     1
  0
CLASS
  1
OLE2FRAME
  2
AcDbOle2Frame
  3
ObjectDBX Classes
 90
       21
280
     0
281
     1
  0
CLASS
  1
HATCH
  2
AcDbHatch
  3
ObjectDBX Classes
 90
       20
280
     0
281
     1
  0
CLASS
  1
DICTIONARYVAR
  2
AcDbDictionaryVar
  3
ObjectDBX Classes
 90
       20
280
     0
281
     0
  0
CLASS
  1
RASTERVARIABLES
  2
AcDbRasterVariables
  3
ISM
 90
       21
280
     0
281
     0
  0
CLASS
  1
IMAGEDEF
  2
AcDbRasterImageDef
  3
ISM
 90
       21
280
     0
281
     0
  0
CLASS
  1
IMAGEDEF_REACTOR
  2
AcDbRasterImageDefReactor
  3
ISM
 90
       21
280
     0
281
     0
  0
CLASS
  1
IDBUFFER
  2
AcDbIdBuffer
  3
ObjectDBX Classes
 90
       20
280
     0
281
     0
  0
CLASS
  1
SPATIAL_FILTER
  2
AcDbSpatialFilter
  3
ObjectDBX Classes
 90
       20
280
     0
281
     0
  0
CLASS
  1
XRECORD
  2
AcDbXrecord
  3
ObjectDBX Classes
 90
       21
280
     0
281
     0
  0
CLASS
  1
ACDBDICTIONARYWDFLT
  2
AcDbDictionaryWithDefault
  3
ObjectDBX Classes
 90
       22
280
     0
281
     0
  0
CLASS
  1
SCALE
  2
AcDbScale
  3
ObjectDBX Classes
 90
       27
280
     0
281
     0
  0
CLASS
  1
VISUALSTYLE
  2
AcDbVisualStyle
  3
ObjectDBX Classes
 90
       26
280
     0
281
     0
  0
CLASS
  1
MATERIAL
  2
AcDbMaterial
  3
ObjectDBX Classes
 90
       23
280
     0
281
     0
  0
CLASS
  1
TABLESTYLE
  2
AcDbTableStyle
  3
ObjectDBX Classes
 90
       25
280
     0
281
     0
  0
CLASS
  1
MLEADERSTYLE
  2
AcDbMLeaderStyle
  3
ACDB_MLEADERSTYLE_CLASS
 90
       27
280
     0
281
     0
  0
CLASS
  1
SORTENTSTABLE
  2
AcDbSortentsTable
  3
"AutoCAD"
 90
        0
280
     0
281
     0
  0
CLASS
  1
LAYER_INDEX
  2
AcDbLayerIndex
  3
"Acad"
 90
        0
280
     0
281
     0
  0
CLASS
  1
SPATIAL_INDEX
  2
AcDbSpatialIndex
  3
"Acad"
 90
        0
280
     0
281
     0
  0
CLASS
  1
OBJECT_PTR
  2
CAseDLPNTableRecord
  3
"ASE-LPNTableRecord"
 90
        1
280
     0
281
     0
  0
CLASS
  1
LAYOUT
  2
AcDbLayout
  3
"AutoCAD 2000"
 90
        1
280
     0
281
     0
  0
CLASS
  1
PLOTSETTINGS
  2
AcDbPlotsettings
  3
"AutoCAD 2000"
 90
        1
280
     0
281
     0
  0
CLASS
  1
ACDBPLACEHOLDER
  2
AcDbPlaceholder
  3
"AutoCAD 2000"
 90
        1
280
     0
281
     0
  0
CLASS
  1
VBA_PROJECT
  2
AcDbVbaProject
  3
"AutoCAD 2000"
 90
        1
280
     0
281
     0
  0
CLASS
  1
WIPEOUT
  2
AcDbWipeout
  3
"AutoCAD 2000"
 90
        1
280
     0
281
     1
  0
CLASS
  1
WIPEOUTVARIABLES
  2
AcDbWipeoutVariables
  3
"AutoCAD 2000"
 90
        1
280
     0
281
     0
  0
CLASS
  1
RTEXT
  2
RText
  3
RText|AutoCAD Express Tool|expresstools@autodesk.com
 90
        1
280
     0
281
     1
  0
CLASS
  1
ARCALIGNEDTEXT
  2
AcDbArcAlignedText
  3
RText|AutoCAD Express Tool|expresstools@autodesk.com
 90
        1
280
     0
281
     1
  0
ENDSEC
  0
SECTION
  2
TABLES
  0
TABLE
  2
VPORT
  5
8
100
AcDbSymbolTable
 70
     1
  0
VPORT
  5
25
100
AcDbSymbolTableRecord
100
AcDbViewportTableRecord
  2
*ACTIVE
 70
     0
 10
0.0
 20
0.0
 11
1.0
 21
1.0
 12
152.0
 22
152.0
 13
0.0
 23
0.0
 14
0.5
 24
0.5
 15
0.5
 25
0.5
 16
0.0
 26
0.0
 36
1.0
 17
0.0
 27
0.0
 37
0.0
 40
304.0
 41
1.0
 42
50.0
 43
0.0
 44
0.0
 50
0.0
 51
0.0
 71
     0
 72
   100
 73
     1
 74
     1
 75
     0
 76
     0
 77
     0
 78
     0
  0
ENDTAB
  0
TABLE
  2
LTYPE
  5
5
100
AcDbSymbolTable
 70
     3
  0
LTYPE
  5
12
100
AcDbSymbolTableRecord
100
AcDbLinetypeTableRecord
  2
BYBLOCK
 70
     0
  3

 72
    65
 73
     0
 40
0.0
  0
LTYPE
  5
13
100
AcDbSymbolTableRecord
100
AcDbLinetypeTableRecord
  2
BYLAYER
 70
     0
  3

 72
    65
 73
     0
 40
0.0
  0
LTYPE
  5
14
100
AcDbSymbolTableRecord
100
AcDbLinetypeTableRecord
  2
CONTINUOUS
 70
     0
  3
Solid line
 72
    65
 73
     0
 40
0.0
  0
ENDTAB
  0
TABLE
  2
LAYER
  5
2
100
AcDbSymbolTable
 70
     5
  0
LAYER
  5
E
100
AcDbSymbolTableRecord
100
AcDbLayerTableRecord
  2
0
 70
     0
 62
     7
  6
CONTINUOUS
  0
LAYER
  5
74
100
AcDbSymbolTableRecord
100
AcDbLayerTableRecord
  2
CUT_OUTER
 70
     0
 62
    10
  6
CONTINUOUS
  0
LAYER
  5
76
100
AcDbSymbolTableRecord
100
AcDbLayerTableRecord
  2
CUT_MIDWAY
 70
     0
 62
     5
  6
CONTINUOUS
  0
LAYER
  5
78
100
AcDbSymbolTableRecord
100
AcDbLayerTableRecord
  2
CUT_FIRST
 70
     0
 62
    94
  6
CONTINUOUS
  0
LAYER
  5
7E
100
AcDbSymbolTableRecord
100
AcDbLayerTableRecord
  2
ENGRAVE
 70
     0
 62
     6
  6
CONTINUOUS
  0
ENDTAB
  0
TABLE
  2
STYLE
  5
3
100
AcDbSymbolTable
 70
     1
  0
STYLE
  5
F
100
AcDbSymbolTableRecord
100
AcDbTextStyleTableRecord
  2
STANDARD
 70
     0
 40
0.0
 41
1.0
 50
0.0
 71
     0
 42
0.2
  3
txt.shx
  4

  0
ENDTAB
  0
TABLE
  2
VIEW
  5
6
100
AcDbSymbolTable
 70
     0
  0
ENDTAB
  0
TABLE
  2
UCS
  5
7
100
AcDbSymbolTable
 70
     0
  0
ENDTAB
  0
TABLE
  2
APPID
  5
9
100
AcDbSymbolTable
 70
     1
  0
APPID
  5
10
100
AcDbSymbolTableRecord
100
AcDbRegAppTableRecord
  2
ACAD
 70
     0
  0
ENDTAB
  0
TABLE
  2
DIMSTYLE
  5
A
100
AcDbSymbolTable
 70
     1
  0
DIMSTYLE
105
1D
100
AcDbSymbolTableRecord
100
AcDbDimStyleTableRecord
  2
STANDARD
 70
     0
  3

  4

  5

  6

  7

 40
1.0
 41
0.18
 42
0.0625
 43
0.38
 44
0.18
 45
0.0
 46
0.0
 47
0.0
 48
0.0
 71
     0
 72
     0
 73
     1
 74
     1
 75
     0
 76
     0
 77
     0
 78
     0
140
0.18
141
0.09
142
0.0
143
25.4
144
1.0
145
0.0
146
1.0
147
0.09
170
     0
171
     2
172
     0
173
     0
174
     0
175
     0
176
     0
177
     0
178
     0
270
     2
271
     4
272
     4
273
     2
274
     2
275
     0
280
     0
281
     0
282
     0
283
     1
284
     0
285
     0
286
     0
287
     3
288
     0
340
F
  0
ENDTAB
  0
TABLE
  2
BLOCK_RECORD
  5
1
100
AcDbSymbolTable
 70
     6
  0
BLOCK_RECORD
  5
18
100
AcDbSymbolTableRecord
100
AcDbBlockTableRecord
  2
*MODEL_SPACE
  0
BLOCK_RECORD
  5
15
100
AcDbSymbolTableRecord
100
AcDbBlockTableRecord
  2
*PAPER_SPACE
  0
BLOCK_RECORD
  5
C8
100
AcDbSymbolTableRecord
100
AcDbBlockTableRecord
  2
CIRCLE
  0
BLOCK_RECORD
  5
CC
100
AcDbSymbolTableRecord
100
AcDbBlockTableRecord
  2
RECTANGLE
  0
BLOCK_RECORD
  5
D0
100
AcDbSymbolTableRecord
100
AcDbBlockTableRecord
  2
RIGHT_TRIANGLE
  0
BLOCK_RECORD
  5
D4
100
AcDbSymbolTableRecord
100
AcDbBlockTableRecord
  2
CELTIC_ORNAMENT
  0
BLOCK_RECORD
  5
10A
100
AcDbSymbolTableRecord
100
AcDbBlockTableRecord
  2
ARC_ORNAMENT
  0
BLOCK_RECORD
  5
117
100
AcDbSymbolTableRecord
100
AcDbBlockTableRecord
  2
TRIANGLE
  0
ENDTAB
  0
ENDSEC
  0
SECTION
  2
BLOCKS
  0
BLOCK
  5
19
100
AcDbEntity
  8
0
100
AcDbBlockBegin
  2
*MODEL_SPACE
 70
     0
 10
0.0
 20
0.0
 30
0.0
  3
*MODEL_SPACE
  1

  0
ENDBLK
  5
1A
100
AcDbEntity
  8
0
100
AcDbBlockEnd
  0
BLOCK
  5
16
100
AcDbEntity
 67
     1
  8
0
100
AcDbBlockBegin
  2
*PAPER_SPACE
 70
     0
 10
0.0
 20
0.0
 30
0.0
  3
*PAPER_SPACE
  1

  0
ENDBLK
  5
17
100
AcDbEntity
 67
     1
  8
0
100
AcDbBlockEnd
  0
BLOCK
  5
C9
100
AcDbEntity
  8
0
100
AcDbBlockBegin
  2
CIRCLE
 70
     0
 10
0.0
 20
0.0
 30
0.0
  3
CIRCLE
  1

  0
LWPOLYLINE
  5
CA
102
{ACAD_REACTORS
330
DB
102
}
100
AcDbEntity
  8
0
  6
CONTINUOUS
 62
     7
100
AcDbPolyline
 90
        2
 70
     1
 10
30.0
 20
50.0
 42
-1.0
 10
70.0
 20
50.0
 42
-1.0
  0
ENDBLK
  5
CB
100
AcDbEntity
  8
0
100
AcDbBlockEnd
  0
BLOCK
  5
CD
100
AcDbEntity
  8
0
100
AcDbBlockBegin
  2
RECTANGLE
 70
     0
 10
0.0
 20
0.0
 30
0.0
  3
RECTANGLE
  1

  0
LWPOLYLINE
  5
CE
102
{ACAD_REACTORS
330
DB
102
}
100
AcDbEntity
  8
0
  6
CONTINUOUS
 62
     7
100
AcDbPolyline
 90
        4
 70
     1
 10
30.0
 20
35.0
 10
70.0
 20
35.0
 10
70.0
 20
65.0
 10
30.0
 20
65.0
  0
ENDBLK
  5
CF
100
AcDbEntity
  8
0
100
AcDbBlockEnd
  0
BLOCK
  5
D1
100
AcDbEntity
  8
0
100
AcDbBlockBegin
  2
RIGHT_TRIANGLE
 70
     0
 10
0.0
 20
0.0
 30
0.0
  3
RIGHT_TRIANGLE
  1

  0
LWPOLYLINE
  5
D2
102
{ACAD_REACTORS
330
DB
102
}
100
AcDbEntity
  8
0
  6
CONTINUOUS
 62
     7
100
AcDbPolyline
 90
        3
 70
     1
 10
30.0
 20
35.0
 10
70.0
 20
35.0
 10
30.0
 20
65.0
  0
ENDBLK
  5
D3
100
AcDbEntity
  8
0
100
AcDbBlockEnd
  0
BLOCK
  5
D5
100
AcDbEntity
  8
0
100
AcDbBlockBegin
  2
CELTIC_ORNAMENT
 70
     0
 10
0.0
 20
0.0
 30
0.0
  3
CELTIC_ORNAMENT
  1

  0
LINE
  5
D6
102
{ACAD_REACTORS
330
DB
102
}
100
AcDbEntity
  8
0
  6
CONTINUOUS
 62
     7
100
AcDbLine
 10
50.000001
 20
50.69012
 30
0.0
 11
48.656251
 21
49.881045
 31
0.0
  0
LINE
  5
D7
102
{ACAD_REACTORS
330
DB
102
}
100
AcDbEntity
  8
0
  6
CONTINUOUS
 62
     7
100
AcDbLine
 10
48.656251
 20
49.881045
 30
0.0
 11
44.867462
 21
52.269666
 31
0.0
  0
ELLIPSE
  5
D8
102
{ACAD_REACTORS
330
DB
102
}
100
AcDbEntity
  8
0
  6
CONTINUOUS
 62
     7
100
AcDbEllipse
 10
45.803581
 20
53.422948
 30
0.0
 11
0.0
 21
-1.4902531497917844
 31
0.0
210
0.0
220
0.0
230
1.0
 40
0.991842
 41
1.8172487142980456
 42
5.5973393853922673
  0
ELLIPSE
  5
D9
102
{ACAD_REACTORS
330
DB
102
}
100
AcDbEntity
  8
0
  6
CONTINUOUS
 62
     7
100
AcDbEllipse
 10
46.734915
 20
53.425209
 30
0.0
 11
0.0
 21
-0.6219416406388342
 31
0.0
210
0.0
220
0.0
230
1.0
 40
0.991842
 41
2.1906760023312266
 42
5.5764035027466656
  0
LINE
  5
DA
102
{ACAD_REACTORS
330
DB
102
}
100
AcDbEntity
  8
0
  6
CONTINUOUS
 62
     7
100
AcDbLine
 10
46.334328
 20
52.95225
 30
0.0
 11
50.000001
 21
50.69012
 31
0.0
  0
HATCH
  5
DB
100
AcDbEntity
  8
0
 62
   252
100
AcDbHatch
 10
0.0
 20
0.0
 30
0.0
210
0.0
220
0.0
230
1.0
  2
SOLID
 70
     1
 71
     1
 91
        5
 92
        1
 93
        5
 72
     1
 10
50.0000006879125394
 20
50.6901202972941931
 11
48.6562506879125749
 21
49.8810453427228921
 72
     1
 10
48.6562506879125749
 20
49.8810453427228921
 11
44.8674619770059522
 21
52.2696655036928917
 72
     3
 10
45.8035807126538472
 20
53.4229479436630825
 11
1.4780949343138816
 21
0.0
 40
1.008226
 50
129.296077
 51
345.879318
 73
     0
 72
     3
 10
46.7349152328359878
 20
53.4252086262536068
 11
0.6168675359589523
 21
0.0
 40
1.008226
 50
35.516489
 51
229.504386
 73
     1
 72
     1
 10
46.3343277205329471
 20
52.9522495768382058
 11
50.0000006879125394
 21
50.6901202972941931
 97
        8
330
CA
330
CE
330
D2
330
D6
330
D7
330
D8
330
D9
330
DA
 92
        1
 93
        5
 72
     1
 10
53.6875006879124967
 20
51.4991952518655012
 11
52.4062506879124896
 21
52.2460336714697959
 72
     1
 10
52.4062506879124896
 20
52.2460336714697959
 11
53.4987631707360052
 21
53.03904848338329
 72
     3
 10
53.0981756584329219
 20
53.5120075327987053
 11
0.6168675359589795
 21
0.0
 40
1.008226
 50
310.495614
 51
144.483511
 73
     1
 72
     3
 10
54.0295101786150482
 20
53.5097468502082023
 11
1.4780949343138512
 21
0.0
 40
1.008226
 50
194.120682
 51
50.703923
 73
     0
 72
     1
 10
54.9656289142628793
 20
52.3564644102379901
 11
53.6875006879124967
 21
51.4991952518655012
 97
        5
330
DC
330
DD
330
DE
330
DF
330
E0
 92
        3
 72
     0
 73
     1
 93
        4
 10
47.4843756879125252
 20
49.196443458085696
 10
51.3750006879125394
 20
51.5147543856073042
 10
52.6406256879124754
 20
50.7367976985194957
 10
48.7343756879126033
 20
48.4340459047396976
 97
        1
330
E1
 92
        1
 93
        5
 72
     1
 10
46.3986919026818825
 20
48.5154564991430988
 11
47.7635805713971777
 21
47.7191089800984969
 72
     1
 10
47.7635805713971777
 20
47.7191089800984969
 11
46.6882447866151225
 21
47.0863206234987928
 72
     3
 10
47.0888322989181844
 20
46.6133615740833775
 11
0.6168675359589837
 21
0.0
 40
1.008226
 50
130.495614
 51
324.483511
 73
     1
 72
     3
 10
46.1574977787360083
 20
46.615622256673845
 11
1.4780949343139138
 21
0.0
 40
1.008226
 50
14.120682
 51
230.703923
 73
     0
 72
     1
 10
45.2213790430881346
 20
47.7689046966440998
 11
46.3986919026818825
 21
48.5154564991430988
 97
        5
330
E2
330
E3
330
E4
330
E5
330
E6
 92
        1
 93
        5
 72
     1
 10
50.0000006879125394
 20
49.1808843243439
 11
51.3437506879125038
 21
49.9588410114316943
 72
     1
 10
51.3437506879125038
 20
49.9588410114316943
 11
55.0527660667701468
 21
47.6435345387444968
 72
     3
 10
54.1166468486301753
 20
46.4902528649502713
 11
1.4780946517962397
 21
0.0
 40
1.008226
 50
309.29611
 51
165.879285
 73
     0
 72
     3
 10
53.1853119969818948
 20
46.4879940970121055
 11
0.6168684181316753
 21
0.0
 40
1.008226
 50
215.516734
 51
49.50415
 73
     1
 72
     1
 10
53.5859020082576549
 20
46.9609521644739019
 11
50.0000006879125394
 21
49.1808843243439
 97
        5
330
E7
330
E8
330
E9
330
EA
330
EB
 75
     0
 76
     1
 98
        0
  0
LINE
  5
DC
102
{ACAD_REACTORS
330
DB
102
}
100
AcDbEntity
  8
0
  6
CONTINUOUS
 62
     7
100
AcDbLine
 10
53.687501
 20
51.499195
 30
0.0
 11
52.406251
 21
52.246034
 31
0.0
  0
LINE
  5
DD
102
{ACAD_REACTORS
330
DB
102
}
100
AcDbEntity
  8
0
  6
CONTINUOUS
 62
     7
100
AcDbLine
 10
52.406251
 20
52.246034
 30
0.0
 11
53.498763
 21
53.039048
 31
0.0
  0
ELLIPSE
  5
DE
102
{ACAD_REACTORS
330
DB
102
}
100
AcDbEntity
  8
0
  6
CONTINUOUS
 62
     7
100
AcDbEllipse
 10
53.098176
 20
53.512008
 30
0.0
 11
0.0
 21
-0.6219416406388616
 31
0.0
210
0.0
220
0.0
230
1.0
 40
0.991842
 41
0.7067818044329548
 42
4.0925093048481944
  0
ELLIPSE
  5
DF
102
{ACAD_REACTORS
330
DB
102
}
100
AcDbEntity
  8
0
  6
CONTINUOUS
 62
     7
100
AcDbEllipse
 10
54.02951
 20
53.509747
 30
0.0
 11
0.0
 21
-1.4902531497917533
 31
0.0
210
0.0
220
0.0
230
1.0
 40
0.991842
 41
0.6858459217872926
 42
4.46593659288148
  0
LINE
  5
E0
102
{ACAD_REACTORS
330
DB
102
}
100
AcDbEntity
  8
0
  6
CONTINUOUS
 62
     7
100
AcDbLine
 10
54.965629
 20
52.356464
 30
0.0
 11
53.687501
 21
51.499195
 31
0.0
  0
LWPOLYLINE
  5
E1
102
{ACAD_REACTORS
330
DB
102
}
100
AcDbEntity
  8
0
  6
CONTINUOUS
 62
     7
100
AcDbPolyline
 90
        4
 70
     1
 10
47.484376
 20
49.196443
 10
51.375001
 20
51.514754
 10
52.640626
 20
50.736798
 10
48.734376
 20
48.434046
  0
LINE
  5
E2
102
{ACAD_REACTORS
330
DB
102
}
100
AcDbEntity
  8
0
  6
CONTINUOUS
 62
     7
100
AcDbLine
 10
46.398692
 20
48.515456
 30
0.0
 11
47.763581
 21
47.719109
 31
0.0
  0
LINE
  5
E3
102
{ACAD_REACTORS
330
DB
102
}
100
AcDbEntity
  8
0
  6
CONTINUOUS
 62
     7
100
AcDbLine
 10
47.763581
 20
47.719109
 30
0.0
 11
46.688245
 21
47.086321
 31
0.0
  0
ELLIPSE
  5
E4
102
{ACAD_REACTORS
330
DB
102
}
100
AcDbEntity
  8
0
  6
CONTINUOUS
 62
     7
100
AcDbEllipse
 10
47.088832
 20
46.613362
 30
0.0
 11
0.0
 21
-0.6219416406388659
 31
0.0
210
0.0
220
0.0
230
1.0
 40
0.991842
 41
3.8483744580227084
 42
0.9509166512584227
  0
ELLIPSE
  5
E5
102
{ACAD_REACTORS
330
DB
102
}
100
AcDbEntity
  8
0
  6
CONTINUOUS
 62
     7
100
AcDbEllipse
 10
46.157498
 20
46.615622
 30
0.0
 11
0.0
 21
-1.4902531497918163
 31
0.0
210
0.0
220
0.0
230
1.0
 40
0.991842
 41
3.827438575377089
 42
1.3243439392917393
  0
LINE
  5
E6
102
{ACAD_REACTORS
330
DB
102
}
100
AcDbEntity
  8
0
  6
CONTINUOUS
 62
     7
100
AcDbLine
 10
45.221379
 20
47.768905
 30
0.0
 11
46.398692
 21
48.515456
 31
0.0
  0
LINE
  5
E7
102
{ACAD_REACTORS
330
DB
102
}
100
AcDbEntity
  8
0
  6
CONTINUOUS
 62
     7
100
AcDbLine
 10
50.000001
 20
49.180884
 30
0.0
 11
51.343751
 21
49.958841
 31
0.0
  0
LINE
  5
E8
102
{ACAD_REACTORS
330
DB
102
}
100
AcDbEntity
  8
0
  6
CONTINUOUS
 62
     7
100
AcDbLine
 10
51.343751
 20
49.958841
 30
0.0
 11
55.052766
 21
47.643535
 31
0.0
  0
ELLIPSE
  5
E9
102
{ACAD_REACTORS
330
DB
102
}
100
AcDbEntity
  8
0
  6
CONTINUOUS
 62
     7
100
AcDbEllipse
 10
54.116647
 20
46.490253
 30
0.0
 11
0.0
 21
-1.4902528649502658
 31
0.0
210
0.0
220
0.0
230
1.0
 40
0.991842
 41
4.9588419461150579
 42
2.4557461535753018
  0
ELLIPSE
  5
EA
102
{ACAD_REACTORS
330
DB
102
}
100
AcDbEntity
  8
0
  6
CONTINUOUS
 62
     7
100
AcDbEllipse
 10
53.185312
 20
46.487994
 30
0.0
 11
0.0
 21
-0.6219425300679556
 31
0.0
210
0.0
220
0.0
230
1.0
 40
0.991842
 41
5.3322729309206505
 42
2.4348067432143692
  0
LINE
  5
EB
102
{ACAD_REACTORS
330
DB
102
}
100
AcDbEntity
  8
0
  6
CONTINUOUS
 62
     7
100
AcDbLine
 10
53.585902
 20
46.960952
 30
0.0
 11
50.000001
 21
49.180884
 31
0.0
  0
LWPOLYLINE
  5
EC
102
{ACAD_REACTORS
330
ED
102
}
100
AcDbEntity
  8
0
  6
CONTINUOUS
 62
     7
100
AcDbPolyline
 90
        6
 70
     1
 10
44.980297
 20
49.311804
 10
50.000001
 20
46.037939
 10
52.484376
 20
47.624971
 10
51.187501
 20
48.434046
 10
50.000001
 20
47.656089
 10
46.171875
 20
50.0
  0
HATCH
  5
ED
100
AcDbEntity
  8
0
 62
   252
100
AcDbHatch
 10
0.0
 20
0.0
 30
0.0
210
0.0
220
0.0
230
1.0
  2
SOLID
 70
     1
 71
     1
 91
        4
 92
        3
 72
     0
 73
     1
 93
        6
 10
44.9802972849650047
 20
49.3118040181877433
 10
50.0000006879125038
 20
46.0379393085092445
 10
52.4843756879123191
 20
47.6249709501683256
 10
51.1875006879122978
 20
48.4340459047396195
 10
50.0000006879125038
 20
47.6560892176518394
 10
46.1718749760784064
 20
49.9999999999999645
 97
        1
330
EC
 92
        3
 72
     0
 73
     1
 93
        6
 10
55.0937506879123262
 20
50.7056794310359464
 10
50.0000006879125038
 20
54.0042157842881494
 10
47.312500687912582
 20
52.3393884739202946
 10
48.7343756879123546
 20
51.4836361181237265
 10
49.9687506879124044
 20
52.3860658751455617
 10
53.8750006879124328
 20
50.0055184126569401
 97
        1
330
EE
 92
        1
 93
       13
 72
     1
 10
47.3437499760782643
 20
50.7187500000000071
 11
43.7459685912602509
 21
48.6171001728806118
 72
     3
 10
41.3555652978371953
 20
52.103968437668442
 11
-0.0000000000000355
 21
-4.2387105838648589
 40
0.991842
 50
325.348412
 51
7.797274
 73
     0
 72
     3
 10
41.1757430204272339
 20
50.0624584906975016
 11
-0.0000000000000184
 21
-2.1936398330757152
 40
0.991842
 50
10.340623
 51
171.478125
 73
     0
 72
     3
 10
41.5952678263996631
 20
48.5741825966314096
 11
-0.0000000000000313
 21
-3.7334052298270732
 40
0.991842
 50
168.441683
 51
213.640254
 73
     0
 72
     1
 10
43.6466133989403247
 20
51.6823628185062063
 11
43.7147435883961109
 21
51.6594670840759562
 72
     1
 10
43.7147435883961109
 20
51.6594670840759562
 11
45.031902537661388
 21
50.8351951614675386
 72
     1
 10
45.031902537661388
 20
50.8351951614675386
 11
43.8737112221021732
 21
50.1254053087596105
 72
     3
 10
22.32223653466869
 20
11.0130008101956083
 11
-0.0000000000003748
 21
-44.7428060757198409
 40
0.991842
 50
150.945805
 51
153.005234
 73
     1
 72
     3
 10
41.6141401272022051
 20
48.763676383674273
 11
-0.0000000000000191
 21
-2.2847675261597078
 40
0.991842
 50
157.927306
 51
194.80688
 73
     1
 72
     3
 10
41.3644143203155181
 20
50.055328772765094
 11
-0.0000000000000082
 21
-0.9755205043153526
 40
0.991842
 50
199.904513
 51
349.854036
 73
     1
 72
     3
 10
41.5637385070699708
 20
51.0276431719283323
 11
-0.0000000000000165
 21
-1.9682100558069637
 40
0.991842
 50
349.081369
 51
36.157364
 73
     1
 72
     1
 10
42.7155182215281926
 20
49.4385111904819112
 11
46.140625687912511
 21
51.4680769843819803
 72
     1
 10
46.140625687912511
 20
51.4680769843819803
 11
47.3437499760782643
 21
50.7187500000000071
 97
       13
330
EF
330
F0
330
F1
330
F2
330
F3
330
F4
330
F5
330
F6
330
F7
330
F8
330
F9
330
FA
330
FB
 92
        1
 93
       13
 72
     3
 10
130.581519155034556
 20
-84.734437727164277
 11
-1.6473453105894922
 21
-155.3707268642069153
 40
0.991841
 50
148.946269
 51
150.552089
 73
     0
 72
     3
 10
58.6444366927803884
 20
47.8792598025198402
 11
4.2041385084572847
 21
0.0
 40
1.008226
 50
235.348495
 51
277.797252
 73
     0
 72
     3
 10
58.8242576435617792
 20
49.9207802284093489
 11
2.1757423803596931
 21
0.0
 40
1.008226
 50
280.340654
 51
81.478095
 73
     0
 72
     3
 10
58.4047336129951375
 20
51.4090716973389661
 11
-0.0000000000000313
 21
-3.7334197240492184
 40
0.991842
 50
348.441725
 51
33.640133
 73
     0
 72
     1
 10
56.3533865991601957
 20
48.3008750326141083
 11
56.2852580947189551
 21
48.3237724659189922
 72
     1
 10
56.2852580947189551
 20
48.3237724659189922
 11
54.9531256879124399
 21
49.1497660568603791
 72
     3
 10
128.3064620665443272
 20
-73.0734662737918086
 11
-1.4711733611177897
 21
-142.8601508687160617
 40
0.991841
 50
148.229818
 51
148.782635
 73
     0
 72
     3
 10
77.6746430939251127
 20
88.9642791513164468
 11
-0.0000000000003747
 21
-44.7360677819026975
 40
0.991842
 50
330.945622
 51
333.00536
 73
     1
 72
     3
 10
58.3858609131043167
 20
51.2195688850822322
 11
-0.0000000000000191
 21
-2.2847732206454356
 40
0.991842
 50
337.927335
 51
14.806859
 73
     1
 72
     3
 10
58.6355885435846105
 20
49.9279100099564204
 11
0.9675606124443625
 21
0.0
 40
1.008226
 50
289.904462
 51
79.854095
 73
     1
 72
     3
 10
58.4362579535704327
 20
48.9556103374265419
 11
1.952138173561297
 21
0.0
 40
1.008226
 50
79.081132
 51
126.15748
 73
     1
 72
     3
 10
153.8528852201172299
 20
-119.1397786780987218
 11
-0.2485545180770072
 21
-195.6347636286386091
 40
0.991842
 50
209.919733
 51
211.130421
 73
     1
 72
     1
 10
53.7500006879122836
 20
48.4496050384813799
 11
52.5000006879124896
 21
49.2120025918273996
 97
       13
330
FC
330
FD
330
FE
330
FF
330
100
330
101
330
102
330
103
330
104
330
105
330
106
330
107
330
108
 75
     0
 76
     1
 98
        0
  0
LWPOLYLINE
  5
EE
102
{ACAD_REACTORS
330
ED
102
}
100
AcDbEntity
  8
0
  6
CONTINUOUS
 62
     7
100
AcDbPolyline
 90
        6
 70
     1
 10
55.093751
 20
50.705679
 10
50.000001
 20
54.004216
 10
47.312501
 20
52.339388
 10
48.734376
 20
51.483636
 10
49.968751
 20
52.386066
 10
53.875001
 20
50.005518
  0
LINE
  5
EF
102
{ACAD_REACTORS
330
ED
102
}
100
AcDbEntity
  8
0
  6
CONTINUOUS
 62
     7
100
AcDbLine
 10
47.34375
 20
50.71875
 30
0.0
 11
43.745969
 21
48.6171
 31
0.0
  0
ELLIPSE
  5
F0
102
{ACAD_REACTORS
330
ED
102
}
100
AcDbEntity
  8
0
  6
CONTINUOUS
 62
     7
100
AcDbEllipse
 10
41.355565
 20
52.103968
 30
0.0
 11
-0.0000000000000355
 21
-4.2387105838648589
 31
0.0
210
0.0
220
0.0
230
1.0
 40
0.991842
 41
-0.1360881052052263
 42
0.6047843058074057
  0
ELLIPSE
  5
F1
102
{ACAD_REACTORS
330
ED
102
}
100
AcDbEntity
  8
0
  6
CONTINUOUS
 62
     7
100
AcDbEllipse
 10
41.175743
 20
50.062458
 30
0.0
 11
-0.0000000000000184
 21
-2.1936398330757152
 31
0.0
210
0.0
220
0.0
230
1.0
 40
0.991842
 41
-2.9928578718844663
 42
-0.1804779234124131
  0
ELLIPSE
  5
F2
102
{ACAD_REACTORS
330
ED
102
}
100
AcDbEntity
  8
0
  6
CONTINUOUS
 62
     7
100
AcDbEllipse
 10
41.595268
 20
48.574183
 30
0.0
 11
-0.0000000000000313
 21
-3.7334052298270732
 31
0.0
210
0.0
220
0.0
230
1.0
 40
0.991842
 41
2.5544594584305691
 42
3.3433233392808401
  0
LINE
  5
F3
102
{ACAD_REACTORS
330
ED
102
}
100
AcDbEntity
  8
0
  6
CONTINUOUS
 62
     7
100
AcDbLine
 10
43.646613
 20
51.682363
 30
0.0
 11
43.714744
 21
51.659467
 31
0.0
  0
LINE
  5
F4
102
{ACAD_REACTORS
330
ED
102
}
100
AcDbEntity
  8
0
  6
CONTINUOUS
 62
     7
100
AcDbLine
 10
43.714744
 20
51.659467
 30
0.0
 11
45.031903
 21
50.835195
 31
0.0
  0
LINE
  5
F5
102
{ACAD_REACTORS
330
ED
102
}
100
AcDbEntity
  8
0
  6
CONTINUOUS
 62
     7
100
AcDbLine
 10
45.031903
 20
50.835195
 30
0.0
 11
43.873711
 21
50.125405
 31
0.0
  0
ELLIPSE
  5
F6
102
{ACAD_REACTORS
330
ED
102
}
100
AcDbEntity
  8
0
  6
CONTINUOUS
 62
     7
100
AcDbEllipse
 10
22.322237
 20
11.013001
 30
0.0
 11
-0.0000000000003748
 21
-44.7428060757198409
 31
0.0
210
0.0
220
0.0
230
1.0
 40
0.991842
 41
2.6345012831740724
 42
2.6704451048764701
  0
ELLIPSE
  5
F7
102
{ACAD_REACTORS
330
ED
102
}
100
AcDbEntity
  8
0
  6
CONTINUOUS
 62
     7
100
AcDbEllipse
 10
41.61414
 20
48.763676
 30
0.0
 11
-0.0000000000000191
 21
-2.2847675261597078
 31
0.0
210
0.0
220
0.0
230
1.0
 40
0.991842
 41
-3.5268338416979783
 42
-2.8831638426262982
  0
ELLIPSE
  5
F8
102
{ACAD_REACTORS
330
ED
102
}
100
AcDbEntity
  8
0
  6
CONTINUOUS
 62
     7
100
AcDbEllipse
 10
41.364414
 20
50.055329
 30
0.0
 11
-0.0000000000000082
 21
-0.9755205043153526
 31
0.0
210
0.0
220
0.0
230
1.0
 40
0.991842
 41
-2.7941933726086949
 42
-0.1770804738315407
  0
ELLIPSE
  5
F9
102
{ACAD_REACTORS
330
ED
102
}
100
AcDbEntity
  8
0
  6
CONTINUOUS
 62
     7
100
AcDbEllipse
 10
41.563739
 20
51.027643
 30
0.0
 11
-0.0000000000000165
 21
-1.9682100558069637
 31
0.0
210
0.0
220
0.0
230
1.0
 40
0.991842
 41
-0.1905660554987271
 42
0.6310650447963621
  0
LINE
  5
FA
102
{ACAD_REACTORS
330
ED
102
}
100
AcDbEntity
  8
0
  6
CONTINUOUS
 62
     7
100
AcDbLine
 10
42.715518
 20
49.438511
 30
0.0
 11
46.140626
 21
51.468077
 31
0.0
  0
LINE
  5
FB
102
{ACAD_REACTORS
330
ED
102
}
100
AcDbEntity
  8
0
  6
CONTINUOUS
 62
     7
100
AcDbLine
 10
46.140626
 20
51.468077
 30
0.0
 11
47.34375
 21
50.71875
 31
0.0
  0
ELLIPSE
  5
FC
102
{ACAD_REACTORS
330
ED
102
}
100
AcDbEntity
  8
0
  6
CONTINUOUS
 62
     7
100
AcDbEllipse
 10
130.581519
 20
-84.734438
 30
0.0
 11
-1.6473453105894922
 21
-155.3707268642069153
 31
0.0
210
0.0
220
0.0
230
1.0
 40
0.991841
 41
-2.6276296559887276
 42
-2.5996027950807998
  0
ELLIPSE
  5
FD
102
{ACAD_REACTORS
330
ED
102
}
100
AcDbEntity
  8
0
  6
CONTINUOUS
 62
     7
100
AcDbEllipse
 10
58.644437
 20
47.87926
 30
0.0
 11
0.0
 21
-4.2387200638758022
 31
0.0
210
0.0
220
0.0
230
1.0
 40
0.991842
 41
3.0055049284675857
 42
3.7463755024614778
  0
ELLIPSE
  5
FE
102
{ACAD_REACTORS
330
ED
102
}
100
AcDbEntity
  8
0
  6
CONTINUOUS
 62
     7
100
AcDbEllipse
 10
58.824258
 20
49.92078
 30
0.0
 11
0.0
 21
-2.1936391636249128
 31
0.0
210
0.0
220
0.0
230
1.0
 40
0.991842
 41
0.1487353010666914
 42
2.9611141983562783
  0
ELLIPSE
  5
FF
102
{ACAD_REACTORS
330
ED
102
}
100
AcDbEntity
  8
0
  6
CONTINUOUS
 62
     7
100
AcDbEllipse
 10
58.404734
 20
51.409072
 30
0.0
 11
-0.0000000000000313
 21
-3.7334197240492184
 31
0.0
210
0.0
220
0.0
230
1.0
 40
0.991842
 41
-0.587131079361741
 42
0.2017299588941417
  0
LINE
  5
100
102
{ACAD_REACTORS
330
ED
102
}
100
AcDbEntity
  8
0
  6
CONTINUOUS
 62
     7
100
AcDbLine
 10
56.353387
 20
48.300875
 30
0.0
 11
56.285258
 21
48.323772
 31
0.0
  0
LINE
  5
101
102
{ACAD_REACTORS
330
ED
102
}
100
AcDbEntity
  8
0
  6
CONTINUOUS
 62
     7
100
AcDbLine
 10
56.285258
 20
48.323772
 30
0.0
 11
54.953126
 21
49.149766
 31
0.0
  0
ELLIPSE
  5
102
102
{ACAD_REACTORS
330
ED
102
}
100
AcDbEntity
  8
0
  6
CONTINUOUS
 62
     7
100
AcDbEllipse
 10
128.306462
 20
-73.073466
 30
0.0
 11
-1.4711733611177897
 21
-142.8601508687160617
 31
0.0
210
0.0
220
0.0
230
1.0
 40
0.991841
 41
-2.5967468572087524
 42
-2.5870983733403232
  0
ELLIPSE
  5
103
102
{ACAD_REACTORS
330
ED
102
}
100
AcDbEntity
  8
0
  6
CONTINUOUS
 62
     7
100
AcDbEllipse
 10
77.674643
 20
88.964279
 30
0.0
 11
-0.0000000000003747
 21
-44.7360677819026975
 31
0.0
210
0.0
220
0.0
230
1.0
 40
0.991842
 41
-0.5070945572904284
 42
-0.4711453545563442
  0
ELLIPSE
  5
104
102
{ACAD_REACTORS
330
ED
102
}
100
AcDbEntity
  8
0
  6
CONTINUOUS
 62
     7
100
AcDbEllipse
 10
58.385861
 20
51.219569
 30
0.0
 11
-0.0000000000000191
 21
-2.2847732206454356
 31
0.0
210
0.0
220
0.0
230
1.0
 40
0.991842
 41
-0.3852406737259554
 42
0.2584284455343243
  0
ELLIPSE
  5
105
102
{ACAD_REACTORS
330
ED
102
}
100
AcDbEntity
  8
0
  6
CONTINUOUS
 62
     7
100
AcDbEllipse
 10
58.635589
 20
49.92791
 30
0.0
 11
0.0
 21
-0.9755193775689439
 31
0.0
210
0.0
220
0.0
230
1.0
 40
0.991842
 41
0.3473984012877116
 42
2.9645132128216245
  0
ELLIPSE
  5
106
102
{ACAD_REACTORS
330
ED
102
}
100
AcDbEntity
  8
0
  6
CONTINUOUS
 62
     7
100
AcDbEllipse
 10
58.436258
 20
48.95561
 30
0.0
 11
0.0
 21
-1.9681956783979742
 31
0.0
210
0.0
220
0.0
230
1.0
 40
0.991842
 41
2.9510224643487311
 42
3.7726597229735366
  0
ELLIPSE
  5
107
102
{ACAD_REACTORS
330
ED
102
}
100
AcDbEntity
  8
0
  6
CONTINUOUS
 62
     7
100
AcDbEllipse
 10
153.852885
 20
-119.139779
 30
0.0
 11
-0.2485545180770072
 21
-195.6347636286386091
 31
0.0
210
0.0
220
0.0
230
1.0
 40
0.991842
 41
-2.6193947950791343
 42
-2.5982643142354567
  0
LINE
  5
108
102
{ACAD_REACTORS
330
ED
102
}
100
AcDbEntity
  8
0
  6
CONTINUOUS
 62
     7
100
AcDbLine
 10
53.750001
 20
48.449605
 30
0.0
 11
52.500001
 21
49.212003
 31
0.0
  0
ENDBLK
  5
109
100
AcDbEntity
  8
0
100
AcDbBlockEnd
  0
BLOCK
  5
10B
100
AcDbEntity
  8
0
100
AcDbBlockBegin
  2
ARC_ORNAMENT
 70
     0
 10
0.0
 20
0.0
 30
0.0
  3
ARC_ORNAMENT
  1

  0
ELLIPSE
  5
10C
102
{ACAD_REACTORS
330
10E
102
}
100
AcDbEntity
  8
0
  6
CONTINUOUS
 62
     7
100
AcDbEllipse
 10
175.262124
 20
53.70891
 30
0.0
 11
71.5435729692789693
 21
12.2291668854556779
 31
0.0
210
0.0
220
0.0
230
1.0
 40
0.950029
 41
1.2398369370094391
 42
2.4583550345905767
  0
ELLIPSE
  5
10D
102
{ACAD_REACTORS
330
10E
102
}
100
AcDbEntity
  8
0
  6
CONTINUOUS
 62
     7
100
AcDbEllipse
 10
180.223342
 20
43.731338
 30
0.0
 11
81.2539753788484234
 21
13.8889963664706571
 31
0.0
210
0.0
220
0.0
230
1.0
 40
0.950029
 41
1.3210215373736476
 42
2.3771704342263678
  0
HATCH
  5
10E
100
AcDbEntity
  8
0
 62
     7
100
AcDbHatch
 10
0.0
 20
0.0
 30
0.0
210
0.0
220
0.0
230
1.0
  2
SOLID
 70
     1
 71
     1
 91
        1
 92
        1
 93
        2
 72
     3
 10
175.2621236361465833
 20
53.7089096088230491
 11
71.5435729692789693
 21
12.2291668854556779
 40
0.950029
 50
219.146632
 51
288.962576
 73
     0
 72
     3
 10
180.2233424454018689
 20
43.7313379779525491
 11
81.2539753788484234
 21
13.8889963664706571
 40
0.950029
 50
75.688959
 51
136.201833
 73
     1
 97
        2
330
10C
330
10D
 75
     0
 76
     1
 98
        0
  0
ELLIPSE
  5
10F
102
{ACAD_REACTORS
330
110
102
}
100
AcDbEntity
  8
0
  6
CONTINUOUS
 62
     7
100
AcDbEllipse
 10
123.879324
 20
101.625367
 30
0.0
 11
4.6935589079543005
 21
0.0
 31
0.0
210
0.0
220
0.0
230
1.0
 40
0.947101
 41
0.0
 42
6.2831853071796004
  0
HATCH
  5
110
100
AcDbEntity
  8
0
 62
     7
100
AcDbHatch
 10
0.0
 20
0.0
 30
0.0
210
0.0
220
0.0
230
1.0
  2
SOLID
 70
     1
 71
     1
 91
        1
 92
        1
 93
        1
 72
     3
 10
123.8793243383413341
 20
101.6253672151468379
 11
4.6935589079543005
 21
0.0
 40
0.947101
 50
0.0
 51
360.0
 73
     1
 97
        1
330
10F
 75
     0
 76
     1
 98
        0
  0
ELLIPSE
  5
111
102
{ACAD_REACTORS
330
112
102
}
100
AcDbEntity
  8
0
  6
CONTINUOUS
 62
     7
100
AcDbEllipse
 10
123.879324
 20
101.625367
 30
0.0
 11
4.3415419898577268
 21
0.0
 31
0.0
210
0.0
220
0.0
230
1.0
 40
0.947101
 41
0.0
 42
6.2831853071796004
  0
HATCH
  5
112
100
AcDbEntity
  8
0
 62
   254
100
AcDbHatch
 10
0.0
 20
0.0
 30
0.0
210
0.0
220
0.0
230
1.0
  2
SOLID
 70
     1
 71
     1
 91
        1
 92
        1
 93
        1
 72
     3
 10
123.8793243383413198
 20
101.6253672151467811
 11
4.3415419898577268
 21
0.0
 40
0.947101
 50
0.0
 51
360.0
 73
     1
 97
        1
330
111
 75
     0
 76
     1
 98
        0
  0
LWPOLYLINE
  5
113
102
{ACAD_REACTORS
330
114
102
}
100
AcDbEntity
  8
0
  6
CONTINUOUS
 62
     7
100
AcDbPolyline
 90
        3
 70
     1
 10
121.634579
 20
99.885912
 10
124.032375
 20
103.905986
 10
126.430172
 20
99.885912
  0
HATCH
  5
114
100
AcDbEntity
  8
0
 62
   252
100
AcDbHatch
 10
0.0
 20
0.0
 30
0.0
210
0.0
220
0.0
230
1.0
  2
SOLID
 70
     1
 71
     1
 91
        1
 92
        3
 72
     0
 73
     1
 93
        3
 10
121.6345787736675703
 20
99.8859120665985643
 10
124.0323751722963692
 20
103.9059861876878301
 10
126.4301715709252107
 20
99.8859120665985643
 97
        1
330
113
 75
     0
 76
     1
 98
        0
  0
ELLIPSE
  5
115
100
AcDbEntity
  8
0
  6
CONTINUOUS
 62
     7
100
AcDbEllipse
 10
123.373956
 20
101.586713
 30
0.0
 11
1.7393777129477952
 21
0.0
 31
0.0
210
0.0
220
0.0
230
1.0
 40
0.958376
 41
0.0
 42
6.2831853071796004
  0
ENDBLK
  5
116
100
AcDbEntity
  8
0
100
AcDbBlockEnd
  0
BLOCK
  5
118
100
AcDbEntity
  8
0
100
AcDbBlockBegin
  2
TRIANGLE
 70
     0
 10
0.0
 20
0.0
 30
0.0
  3
TRIANGLE
  1

  0
LWPOLYLINE
  5
119
100
AcDbEntity
  8
0
  6
CONTINUOUS
 62
     7
100
AcDbPolyline
 90
        3
 70
     1
 10
70.0
 20
30.0
 10
50.0
 20
70.0
 10
30.0
 20
30.0
  0
ENDBLK
  5
11A
100
AcDbEntity
  8
0
100
AcDbBlockEnd
  0
ENDSEC
  0
SECTION
  2
ENTITIES
  0
LWPOLYLINE
  5
75
100
AcDbEntity
  8
CUT_OUTER
  6
CONTINUOUS
100
AcDbPolyline
 90
        2
 70
     1
 10
12.0
 20
152.0
 42
-1.0
 10
292.0
 20
152.0
 42
-1.0
  0
LWPOLYLINE
  5
77
100
AcDbEntity
  8
CUT_MIDWAY
  6
CONTINUOUS
100
AcDbPolyline
 90
       32
 70
     1
 10
204.181188
 20
169.381704
 42
0.236177
 10
169.381704
 20
204.181188
 42
-0.054544
 10
169.5
 20
203.099999
 10
169.5
 20
198.1
 42
-0.414214
 10
164.5
 20
193.1
 10
139.499999
 20
193.1
 42
-0.414214
 10
134.499999
 20
198.1
 10
134.499999
 20
203.099999
 42
-0.054543
 10
134.618296
 20
204.181188
 42
0.236177
 10
99.818812
 20
169.381705
 42
-0.054544
 10
100.9
 20
169.500001
 10
105.899999
 20
169.500001
 42
-0.414213
 10
110.899999
 20
164.500001
 10
110.899999
 20
139.5
 42
-0.414214
 10
105.899999
 20
134.5
 10
100.9
 20
134.5
 42
-0.054544
 10
99.818812
 20
134.618296
 42
0.236177
 10
134.618295
 20
99.818812
 42
-0.054544
 10
134.499999
 20
100.9
 10
134.499999
 20
105.899999
 42
-0.414213
 10
139.499999
 20
110.899999
 10
164.5
 20
110.899999
 42
-0.414214
 10
169.5
 20
105.899999
 10
169.5
 20
100.9
 42
-0.054544
 10
169.381704
 20
99.818812
 42
0.236177
 10
204.181188
 20
134.618296
 42
-0.054544
 10
203.099999
 20
134.5
 10
198.1
 20
134.5
 42
-0.414214
 10
193.1
 20
139.5
 10
193.1
 20
164.500001
 42
-0.414214
 10
198.1
 20
169.500001
 10
203.099999
 20
169.500001
 42
-0.054543
  0
LWPOLYLINE
  5
79
100
AcDbEntity
  8
CUT_FIRST
  6
CONTINUOUS
100
AcDbPolyline
 90
        4
 70
     1
 10
144.5
 20
199.415
 10
159.5
 20
199.415
 10
159.5
 20
205.585
 10
144.5
 20
205.585
  0
LWPOLYLINE
  5
7A
100
AcDbEntity
  8
CUT_FIRST
  6
CONTINUOUS
100
AcDbPolyline
 90
        4
 70
     1
 10
144.5
 20
98.414999
 10
159.5
 20
98.414999
 10
159.5
 20
104.584999
 10
144.5
 20
104.584999
  0
LWPOLYLINE
  5
7B
100
AcDbEntity
  8
CUT_FIRST
  6
CONTINUOUS
100
AcDbPolyline
 90
        4
 70
     1
 10
199.415
 20
159.5
 10
199.415
 20
144.5
 10
205.585
 20
144.5
 10
205.585
 20
159.5
  0
LWPOLYLINE
  5
7C
100
AcDbEntity
  8
CUT_FIRST
  6
CONTINUOUS
100
AcDbPolyline
 90
        4
 70
     1
 10
98.415
 20
159.5
 10
98.415
 20
144.5
 10
104.585
 20
144.5
 10
104.585
 20
159.5
  0
LWPOLYLINE
  5
7F
102
{ACAD_REACTORS
330
7D
102
}
100
AcDbEntity
  8
ENGRAVE
  6
CONTINUOUS
100
AcDbPolyline
 90
       38
 70
     1
 10
233.145329
 20
64.244583
 10
228.694496
 20
60.810827
 10
229.050215
 20
57.091057
 10
225.54218
 20
58.378469
 10
220.813725
 20
54.73019
 10
220.529327
 20
54.963026
 10
211.700834
 20
49.446828
 10
211.100642
 20
49.171123
 10
211.109315
 20
49.077136
 10
209.604094
 20
48.136587
 10
211.471837
 20
45.14741
 10
211.716683
 20
42.495379
 10
207.055913
 20
47.314403
 10
202.798771
 20
45.36036
 10
203.414812
 20
38.684616
 10
198.754556
 20
43.503599
 10
192.794225
 20
40.767654
 10
194.748227
 20
36.509991
 10
197.686188
 20
37.85873
 10
205.318639
 20
29.765123
 10
209.576338
 20
31.719653
 10
209.031537
 20
37.39712
 10
212.982163
 20
33.282985
 10
217.239306
 20
35.237029
 10
216.049279
 20
46.639785
 10
216.496329
 20
46.919248
 10
219.062441
 20
36.093976
 10
223.233582
 20
38.700666
 10
222.776951
 20
40.624478
 10
227.265911
 20
43.429571
 10
228.795394
 20
42.175541
 10
232.966532
 20
44.782231
 10
224.534815
 20
51.684311
 10
226.363769
 20
53.095975
 10
230.200214
 20
51.766127
 10
234.563913
 20
46.110002
 10
238.273056
 20
48.971801
 10
233.908799
 20
54.627453
  0
LINE
  5
80
102
{ACAD_REACTORS
330
7D
102
}
100
AcDbEntity
  8
ENGRAVE
  6
CONTINUOUS
100
AcDbLine
 10
70.392899
 20
65.000001
 30
0.0
 11
67.590157
 21
61.246298
 31
0.0
  0
LINE
  5
81
102
{ACAD_REACTORS
330
7D
102
}
100
AcDbEntity
  8
ENGRAVE
  6
CONTINUOUS
100
AcDbLine
 10
67.590157
 20
61.246298
 30
0.0
 11
72.657423
 21
57.462589
 31
0.0
  0
LINE
  5
82
102
{ACAD_REACTORS
330
7D
102
}
100
AcDbEntity
  8
ENGRAVE
  6
CONTINUOUS
100
AcDbLine
 10
72.657423
 20
57.462589
 30
0.0
 11
66.351415
 21
49.017135
 31
0.0
  0
LINE
  5
83
102
{ACAD_REACTORS
330
7D
102
}
100
AcDbEntity
  8
ENGRAVE
  6
CONTINUOUS
100
AcDbLine
 10
66.351415
 20
49.017135
 30
0.0
 11
70.105117
 21
46.214385
 31
0.0
  0
LINE
  5
84
102
{ACAD_REACTORS
330
7D
102
}
100
AcDbEntity
  8
ENGRAVE
  6
CONTINUOUS
100
AcDbLine
 10
70.105117
 20
46.214385
 30
0.0
 11
76.411167
 21
54.660364
 31
0.0
  0
LINE
  5
85
102
{ACAD_REACTORS
330
7D
102
}
100
AcDbEntity
  8
ENGRAVE
  6
CONTINUOUS
100
AcDbLine
 10
76.411167
 20
54.660364
 30
0.0
 11
78.874263
 21
52.820714
 31
0.0
  0
LINE
  5
86
102
{ACAD_REACTORS
330
7D
102
}
100
AcDbEntity
  8
ENGRAVE
  6
CONTINUOUS
100
AcDbLine
 10
78.874263
 20
52.820714
 30
0.0
 11
78.751029
 21
52.611664
 31
0.0
  0
LINE
  5
87
102
{ACAD_REACTORS
330
7D
102
}
100
AcDbEntity
  8
ENGRAVE
  6
CONTINUOUS
100
AcDbLine
 10
78.751029
 20
52.611664
 30
0.0
 11
80.163344
 21
51.778952
 31
0.0
  0
LINE
  5
88
102
{ACAD_REACTORS
330
7D
102
}
100
AcDbEntity
  8
ENGRAVE
  6
CONTINUOUS
100
AcDbLine
 10
80.163344
 20
51.778952
 30
0.0
 11
74.80799
 21
42.700926
 31
0.0
  0
LINE
  5
89
102
{ACAD_REACTORS
330
7D
102
}
100
AcDbEntity
  8
ENGRAVE
  6
CONTINUOUS
100
AcDbLine
 10
74.80799
 20
42.700926
 30
0.0
 11
78.84269
 21
40.32029
 31
0.0
  0
LINE
  5
8A
102
{ACAD_REACTORS
330
7D
102
}
100
AcDbEntity
  8
ENGRAVE
  6
CONTINUOUS
100
AcDbLine
 10
78.84269
 20
40.32029
 30
0.0
 11
81.81798
 21
45.364115
 31
0.0
  0
LINE
  5
8B
102
{ACAD_REACTORS
330
7D
102
}
100
AcDbEntity
  8
ENGRAVE
  6
CONTINUOUS
100
AcDbLine
 10
81.81798
 20
45.364115
 30
0.0
 11
85.852683
 21
42.983479
 31
0.0
  0
LINE
  5
8C
102
{ACAD_REACTORS
330
7D
102
}
100
AcDbEntity
  8
ENGRAVE
  6
CONTINUOUS
100
AcDbLine
 10
85.852683
 20
42.983479
 30
0.0
 11
82.877433
 21
37.940207
 31
0.0
  0
LINE
  5
8D
102
{ACAD_REACTORS
330
7D
102
}
100
AcDbEntity
  8
ENGRAVE
  6
CONTINUOUS
100
AcDbLine
 10
82.877433
 20
37.940207
 30
0.0
 11
86.912177
 21
35.560099
 31
0.0
  0
LINE
  5
8E
102
{ACAD_REACTORS
330
7D
102
}
100
AcDbEntity
  8
ENGRAVE
  6
CONTINUOUS
100
AcDbLine
 10
86.912177
 20
35.560099
 30
0.0
 11
92.327914
 21
44.740157
 31
0.0
  0
LINE
  5
8F
102
{ACAD_REACTORS
330
7D
102
}
100
AcDbEntity
  8
ENGRAVE
  6
CONTINUOUS
100
AcDbLine
 10
92.327914
 20
44.740157
 30
0.0
 11
92.662769
 21
44.575396
 31
0.0
  0
LINE
  5
90
102
{ACAD_REACTORS
330
7D
102
}
100
AcDbEntity
  8
ENGRAVE
  6
CONTINUOUS
100
AcDbLine
 10
92.662769
 20
44.575396
 30
0.0
 11
88.00898
 21
35.118167
 31
0.0
  0
LINE
  5
91
102
{ACAD_REACTORS
330
7D
102
}
100
AcDbEntity
  8
ENGRAVE
  6
CONTINUOUS
100
AcDbLine
 10
88.00898
 20
35.118167
 30
0.0
 11
91.78619
 21
33.25959
 31
0.0
  0
LINE
  5
92
102
{ACAD_REACTORS
330
7D
102
}
100
AcDbEntity
  8
ENGRAVE
  6
CONTINUOUS
100
AcDbLine
 10
91.78619
 20
33.25959
 30
0.0
 11
91.67337
 21
32.978704
 31
0.0
  0
LINE
  5
93
102
{ACAD_REACTORS
330
7D
102
}
100
AcDbEntity
  8
ENGRAVE
  6
CONTINUOUS
100
AcDbLine
 10
91.67337
 20
32.978704
 30
0.0
 11
100.368629
 21
29.491069
 31
0.0
  0
SPLINE
  5
94
102
{ACAD_REACTORS
330
7D
102
}
100
AcDbEntity
  8
ENGRAVE
  6
CONTINUOUS
100
AcDbSpline
210
0.0
220
0.0
230
1.0
 70
     0
 71
     3
 72
     8
 73
     4
 74
     0
 42
0.0000001
 43
0.0000001
 40
0.0
 40
0.0
 40
0.0
 40
0.0
 40
1.0
 40
1.0
 40
1.0
 40
1.0
 10
100.3686288609423229
 20
29.4910692051488041
 30
0.0
 10
101.5715248243424469
 20
29.008647685932079
 30
0.0
 10
102.7618130826759
 20
29.0191665871476943
 30
0.0
 10
103.9395173750363739
 20
29.5226240404885196
 30
0.0
  0
SPLINE
  5
95
102
{ACAD_REACTORS
330
7D
102
}
100
AcDbEntity
  8
ENGRAVE
  6
CONTINUOUS
100
AcDbSpline
210
0.0
220
0.0
230
1.0
 70
     0
 71
     3
 72
     8
 73
     4
 74
     0
 42
0.0000001
 43
0.0000001
 40
0.0
 40
0.0
 40
0.0
 40
0.0
 40
1.0
 40
1.0
 40
1.0
 40
1.0
 10
103.9395173750363739
 20
29.5226240404885196
 30
0.0
 10
105.1375253861346408
 20
30.0347545935602191
 30
0.0
 10
105.9781901678668845
 20
30.8924553719619119
 30
0.0
 10
106.4606318115406509
 20
32.0953709836508807
 30
0.0
  0
SPLINE
  5
96
102
{ACAD_REACTORS
330
7D
102
}
100
AcDbEntity
  8
ENGRAVE
  6
CONTINUOUS
100
AcDbSpline
210
0.0
220
0.0
230
1.0
 70
     0
 71
     3
 72
     8
 73
     4
 74
     0
 42
0.0000001
 43
0.0000001
 40
0.0
 40
0.0
 40
0.0
 40
0.0
 40
1.0
 40
1.0
 40
1.0
 40
1.0
 10
106.4606318115406509
 20
32.0953709836508807
 30
0.0
 10
107.1348828879660289
 20
33.7765191257874093
 30
0.0
 10
106.7852442619119131
 20
35.4641755836679309
 30
0.0
 10
105.4123831425639679
 20
37.1587921095915803
 30
0.0
  0
LINE
  5
97
102
{ACAD_REACTORS
330
7D
102
}
100
AcDbEntity
  8
ENGRAVE
  6
CONTINUOUS
100
AcDbLine
 10
105.412383
 20
37.158792
 30
0.0
 11
104.100653
 21
38.795358
 31
0.0
  0
SPLINE
  5
98
102
{ACAD_REACTORS
330
7D
102
}
100
AcDbEntity
  8
ENGRAVE
  6
CONTINUOUS
100
AcDbSpline
210
0.0
220
0.0
230
1.0
 70
     0
 71
     3
 72
     8
 73
     4
 74
     0
 42
0.0000001
 43
0.0000001
 40
0.0
 40
0.0
 40
0.0
 40
0.0
 40
1.0
 40
1.0
 40
1.0
 40
1.0
 10
104.1006534701604664
 20
38.7953579505812982
 30
0.0
 10
104.0862379980245152
 20
38.8852427258060445
 30
0.0
 10
104.0933450567917333
 20
38.966373961900608
 30
0.0
 10
104.1224076160592347
 20
39.0388237440082975
 30
0.0
  0
SPLINE
  5
99
102
{ACAD_REACTORS
330
7D
102
}
100
AcDbEntity
  8
ENGRAVE
  6
CONTINUOUS
100
AcDbSpline
210
0.0
220
0.0
230
1.0
 70
     0
 71
     3
 72
     8
 73
     4
 74
     0
 42
0.0000001
 43
0.0000001
 40
0.0
 40
0.0
 40
0.0
 40
0.0
 40
1.0
 40
1.0
 40
1.0
 40
1.0
 10
104.1224076160592347
 20
39.0388237440082975
 30
0.0
 10
104.1747211312108021
 20
39.1692651284808377
 30
0.0
 10
104.2750469470573904
 20
39.2303206185249209
 30
0.0
 10
104.422918879651661
 20
39.2214961006645524
 30
0.0
  0
LINE
  5
9A
102
{ACAD_REACTORS
330
7D
102
}
100
AcDbEntity
  8
ENGRAVE
  6
CONTINUOUS
100
AcDbLine
 10
104.422919
 20
39.221496
 30
0.0
 11
110.161988
 21
36.919787
 31
0.0
  0
LINE
  5
9B
102
{ACAD_REACTORS
330
7D
102
}
100
AcDbEntity
  8
ENGRAVE
  6
CONTINUOUS
100
AcDbLine
 10
110.161988
 20
36.919787
 30
0.0
 11
111.905805
 21
41.267406
 31
0.0
  0
LINE
  5
9C
102
{ACAD_REACTORS
330
7D
102
}
100
AcDbEntity
  8
ENGRAVE
  6
CONTINUOUS
100
AcDbLine
 10
111.905805
 20
41.267406
 30
0.0
 11
104.731574
 21
44.144447
 31
0.0
  0
SPLINE
  5
9D
102
{ACAD_REACTORS
330
7D
102
}
100
AcDbEntity
  8
ENGRAVE
  6
CONTINUOUS
100
AcDbSpline
210
0.0
220
0.0
230
1.0
 70
     0
 71
     3
 72
     8
 73
     4
 74
     0
 42
0.0000001
 43
0.0000001
 40
0.0
 40
0.0
 40
0.0
 40
0.0
 40
1.0
 40
1.0
 40
1.0
 40
1.0
 10
104.7315737943292788
 20
44.1444471515028383
 30
0.0
 10
103.5286778309291549
 20
44.6268686707195812
 30
0.0
 10
102.3281530747786547
 20
44.6124047129664021
 30
0.0
 10
101.1301450636803878
 20
44.1002741598946741
 30
0.0
  0
SPLINE
  5
9E
102
{ACAD_REACTORS
330
7D
102
}
100
AcDbEntity
  8
ENGRAVE
  6
CONTINUOUS
100
AcDbSpline
210
0.0
220
0.0
230
1.0
 70
     0
 71
     3
 72
     8
 73
     4
 74
     0
 42
0.0000001
 43
0.0000001
 40
0.0
 40
0.0
 40
0.0
 40
0.0
 40
1.0
 40
1.0
 40
1.0
 40
1.0
 10
101.1301450636803878
 20
44.1002741598946741
 30
0.0
 10
99.9524407713199281
 20
43.5968167065538168
 30
0.0
 10
99.1225662764758653
 20
42.7435216633454971
 30
0.0
 10
98.6401267086989577
 20
41.5406324284273154
 30
0.0
  0
SPLINE
  5
9F
102
{ACAD_REACTORS
330
7D
102
}
100
AcDbEntity
  8
ENGRAVE
  6
CONTINUOUS
100
AcDbSpline
210
0.0
220
0.0
230
1.0
 70
     0
 71
     3
 72
     8
 73
     4
 74
     0
 42
0.0000001
 43
0.0000001
 40
0.0
 40
0.0
 40
0.0
 40
0.0
 40
1.0
 40
1.0
 40
1.0
 40
1.0
 10
98.6401267086989577
 20
41.5406324284273154
 30
0.0
 10
97.9658756322736082
 20
39.8594842862908081
 30
0.0
 10
98.3149583933596887
 20
38.1713407729837257
 30
0.0
 10
99.6878195127076765
 20
36.4767242470600195
 30
0.0
  0
LINE
  5
A0
102
{ACAD_REACTORS
330
7D
102
}
100
AcDbEntity
  8
ENGRAVE
  6
CONTINUOUS
100
AcDbLine
 10
99.68782
 20
36.476724
 30
0.0
 11
101.000064
 21
34.840118
 31
0.0
  0
SPLINE
  5
A1
102
{ACAD_REACTORS
330
7D
102
}
100
AcDbEntity
  8
ENGRAVE
  6
CONTINUOUS
100
AcDbSpline
210
0.0
220
0.0
230
1.0
 70
     0
 71
     3
 72
     8
 73
     4
 74
     0
 42
0.0000001
 43
0.0000001
 40
0.0
 40
0.0
 40
0.0
 40
0.0
 40
1.0
 40
1.0
 40
1.0
 40
1.0
 10
101.0000635321415245
 20
34.840117926081156
 30
0.0
 10
101.0144790042774758
 20
34.7502331508564097
 30
0.0
 10
101.0073719455103003
 20
34.6691019147618533
 30
0.0
 10
100.9783093862427705
 20
34.5966521326541567
 30
0.0
  0
SPLINE
  5
A2
102
{ACAD_REACTORS
330
7D
102
}
100
AcDbEntity
  8
ENGRAVE
  6
CONTINUOUS
100
AcDbSpline
210
0.0
220
0.0
230
1.0
 70
     0
 71
     3
 72
     8
 73
     4
 74
     0
 42
0.0000001
 43
0.0000001
 40
0.0
 40
0.0
 40
0.0
 40
0.0
 40
1.0
 40
1.0
 40
1.0
 40
1.0
 10
100.9783093862427705
 20
34.5966521326541567
 30
0.0
 10
100.9259958710912173
 20
34.4662107481815667
 30
0.0
 10
100.8257115731822466
 20
34.4056827935533036
 30
0.0
 10
100.6778396405880045
 20
34.4145073114136935
 30
0.0
  0
LINE
  5
A3
102
{ACAD_REACTORS
330
7D
102
}
100
AcDbEntity
  8
ENGRAVE
  6
CONTINUOUS
100
AcDbLine
 10
100.67784
 20
34.414507
 30
0.0
 11
94.168435
 21
37.025126
 31
0.0
  0
LINE
  5
A4
102
{ACAD_REACTORS
330
7D
102
}
100
AcDbEntity
  8
ENGRAVE
  6
CONTINUOUS
100
AcDbLine
 10
94.168435
 20
37.025126
 30
0.0
 11
98.934472
 21
46.709901
 31
0.0
  0
LINE
  5
A5
102
{ACAD_REACTORS
330
7D
102
}
100
AcDbEntity
  8
ENGRAVE
  6
CONTINUOUS
100
AcDbLine
 10
98.934472
 20
46.709901
 30
0.0
 11
93.259926
 21
49.502086
 31
0.0
  0
LINE
  5
A6
102
{ACAD_REACTORS
330
7D
102
}
100
AcDbEntity
  8
ENGRAVE
  6
CONTINUOUS
100
AcDbLine
 10
93.259926
 20
49.502086
 30
0.0
 11
93.255671
 21
49.494127
 31
0.0
  0
LINE
  5
A7
102
{ACAD_REACTORS
330
7D
102
}
100
AcDbEntity
  8
ENGRAVE
  6
CONTINUOUS
100
AcDbLine
 10
93.255671
 20
49.494127
 30
0.0
 11
90.612893
 21
51.05297
 31
0.0
  0
LINE
  5
A8
102
{ACAD_REACTORS
330
7D
102
}
100
AcDbEntity
  8
ENGRAVE
  6
CONTINUOUS
100
AcDbLine
 10
90.612893
 20
51.05297
 30
0.0
 11
87.637642
 21
46.00969
 31
0.0
  0
LINE
  5
A9
102
{ACAD_REACTORS
330
7D
102
}
100
AcDbEntity
  8
ENGRAVE
  6
CONTINUOUS
100
AcDbLine
 10
87.637642
 20
46.00969
 30
0.0
 11
83.6029
 21
48.389786
 31
0.0
  0
LINE
  5
AA
102
{ACAD_REACTORS
330
7D
102
}
100
AcDbEntity
  8
ENGRAVE
  6
CONTINUOUS
100
AcDbLine
 10
83.6029
 20
48.389786
 30
0.0
 11
86.578189
 21
53.43359
 31
0.0
  0
LINE
  5
AB
102
{ACAD_REACTORS
330
7D
102
}
100
AcDbEntity
  8
ENGRAVE
  6
CONTINUOUS
100
AcDbLine
 10
86.578189
 20
53.43359
 30
0.0
 11
82.942701
 21
55.578037
 31
0.0
  0
LINE
  5
AC
102
{ACAD_REACTORS
330
7D
102
}
100
AcDbEntity
  8
ENGRAVE
  6
CONTINUOUS
100
AcDbLine
 10
82.942701
 20
55.578037
 30
0.0
 11
82.967055
 21
55.610851
 31
0.0
  0
LINE
  5
AD
102
{ACAD_REACTORS
330
7D
102
}
100
AcDbEntity
  8
ENGRAVE
  6
CONTINUOUS
100
AcDbLine
 10
82.967055
 20
55.610851
 30
0.0
 11
70.392899
 21
65.000001
 31
0.0
  0
LWPOLYLINE
  5
AE
102
{ACAD_REACTORS
330
7D
102
}
100
AcDbEntity
  8
ENGRAVE
  6
CONTINUOUS
100
AcDbPolyline
 90
        3
 70
     1
 10
220.87624
 20
48.661468
 10
224.594615
 20
45.627207
 10
221.972856
 20
43.988693
  0
LWPOLYLINE
  5
AF
102
{ACAD_REACTORS
330
7D
102
}
100
AcDbEntity
  8
ENGRAVE
  6
CONTINUOUS
100
AcDbPolyline
 90
       36
 70
     1
 10
187.012938
 20
39.476806
 10
173.774896
 20
36.393028
 10
173.77017
 20
36.43175
 10
169.120174
 20
35.868277
 10
169.8243
 20
30.054897
 10
165.174308
 20
29.491449
 10
164.469624
 20
35.304343
 10
160.275995
 20
34.796198
 10
160.275392
 20
34.834623
 10
144.583635
 20
34.638387
 10
144.642138
 20
29.954515
 10
150.965616
 20
30.033272
 10
151.097239
 20
19.494463
 10
155.781059
 20
19.552445
 10
155.649477
 20
30.091782
 10
158.726377
 20
30.130048
 10
158.754891
 20
29.892976
 10
160.382537
 20
30.090419
 10
161.651155
 20
19.626968
 10
166.301664
 20
20.190374
 10
165.597021
 20
26.003795
 10
170.247531
 20
26.567228
 10
170.951696
 20
20.754349
 10
175.602207
 20
21.317782
 10
174.341874
 20
31.715266
 10
174.388346
 20
31.726126
 10
176.779791
 20
21.460966
 10
190.466634
 20
24.64887
 10
189.403827
 20
29.211164
 10
180.279278
 20
27.086062
 10
180.013447
 20
28.226633
 10
186.85687
 20
29.820598
 10
186.059892
 20
33.242295
 10
179.216471
 20
31.648357
 10
178.95064
 20
32.788927
 10
188.075704
 20
34.913989
  0
LINE
  5
B0
102
{ACAD_REACTORS
330
7D
102
}
100
AcDbEntity
  8
ENGRAVE
  6
CONTINUOUS
100
AcDbLine
 10
118.359823
 20
39.342778
 30
0.0
 11
117.254624
 21
34.790939
 31
0.0
  0
LINE
  5
B1
102
{ACAD_REACTORS
330
7D
102
}
100
AcDbEntity
  8
ENGRAVE
  6
CONTINUOUS
100
AcDbLine
 10
117.254624
 20
34.790939
 30
0.0
 11
118.847666
 21
34.403798
 31
0.0
  0
LINE
  5
B2
102
{ACAD_REACTORS
330
7D
102
}
100
AcDbEntity
  8
ENGRAVE
  6
CONTINUOUS
100
AcDbLine
 10
118.847666
 20
34.403798
 30
0.0
 11
116.359998
 21
24.161316
 31
0.0
  0
LINE
  5
B3
102
{ACAD_REACTORS
330
7D
102
}
100
AcDbEntity
  8
ENGRAVE
  6
CONTINUOUS
100
AcDbLine
 10
116.359998
 20
24.161316
 30
0.0
 11
120.451016
 21
23.168066
 31
0.0
  0
LINE
  5
B4
102
{ACAD_REACTORS
330
7D
102
}
100
AcDbEntity
  8
ENGRAVE
  6
CONTINUOUS
100
AcDbLine
 10
120.451016
 20
23.168066
 30
0.0
 11
120.402258
 21
22.871256
 31
0.0
  0
LINE
  5
B5
102
{ACAD_REACTORS
330
7D
102
}
100
AcDbEntity
  8
ENGRAVE
  6
CONTINUOUS
100
AcDbLine
 10
120.402258
 20
22.871256
 30
0.0
 11
129.64751
 21
21.353141
 31
0.0
  0
SPLINE
  5
B6
102
{ACAD_REACTORS
330
7D
102
}
100
AcDbEntity
  8
ENGRAVE
  6
CONTINUOUS
100
AcDbSpline
210
0.0
220
0.0
230
1.0
 70
     0
 71
     3
 72
     8
 73
     4
 74
     0
 42
0.0000001
 43
0.0000001
 40
0.0
 40
0.0
 40
0.0
 40
0.0
 40
1.0
 40
1.0
 40
1.0
 40
1.0
 10
129.6475104514939005
 20
21.3531406871752729
 30
0.0
 10
130.9264116998087957
 20
21.1430904884192437
 30
0.0
 10
132.0859281879481273
 20
21.4116393402458662
 30
0.0
 10
133.1263882826539771
 20
22.1585756186001568
 30
0.0
  0
SPLINE
  5
B7
102
{ACAD_REACTORS
330
7D
102
}
100
AcDbEntity
  8
ENGRAVE
  6
CONTINUOUS
100
AcDbSpline
210
0.0
220
0.0
230
1.0
 70
     0
 71
     3
 72
     8
 73
     4
 74
     0
 42
0.0000001
 43
0.0000001
 40
0.0
 40
0.0
 40
0.0
 40
0.0
 40
1.0
 40
1.0
 40
1.0
 40
1.0
 10
133.1263882826539771
 20
22.1585756186001568
 30
0.0
 10
134.1847862383947643
 20
22.9183522158371531
 30
0.0
 10
134.8188875234983755
 20
23.9375641208053658
 30
0.0
 10
135.0289186357457822
 20
25.216458909216783
 30
0.0
  0
SPLINE
  5
B8
102
{ACAD_REACTORS
330
7D
102
}
100
AcDbEntity
  8
ENGRAVE
  6
CONTINUOUS
100
AcDbSpline
210
0.0
220
0.0
230
1.0
 70
     0
 71
     3
 72
     8
 73
     4
 74
     0
 42
0.0000001
 43
0.0000001
 40
0.0
 40
0.0
 40
0.0
 40
0.0
 40
1.0
 40
1.0
 40
1.0
 40
1.0
 10
135.0289186357457822
 20
25.216458909216783
 30
0.0
 10
135.3224576553907923
 20
27.0038461237076071
 30
0.0
 10
134.6155542088981747
 20
28.5760377352181258
 30
0.0
 10
132.9077975035391717
 20
29.932535270889062
 30
0.0
  0
LINE
  5
B9
102
{ACAD_REACTORS
330
7D
102
}
100
AcDbEntity
  8
ENGRAVE
  6
CONTINUOUS
100
AcDbLine
 10
132.907798
 20
29.932535
 30
0.0
 11
131.272002
 21
31.245231
 31
0.0
  0
SPLINE
  5
BA
102
{ACAD_REACTORS
330
7D
102
}
100
AcDbEntity
  8
ENGRAVE
  6
CONTINUOUS
100
AcDbSpline
210
0.0
220
0.0
230
1.0
 70
     0
 71
     3
 72
     8
 73
     4
 74
     0
 42
0.0000001
 43
0.0000001
 40
0.0
 40
0.0
 40
0.0
 40
0.0
 40
1.0
 40
1.0
 40
1.0
 40
1.0
 10
131.272002053205199
 20
31.2452311411258243
 30
0.0
 10
131.2384299518329556
 20
31.3298558381771031
 30
0.0
 10
131.227634684499094
 20
31.4106709083097861
 30
0.0
 10
131.2402892494150421
 20
31.4877295460056565
 30
0.0
  0
SPLINE
  5
BB
102
{ACAD_REACTORS
330
7D
102
}
100
AcDbEntity
  8
ENGRAVE
  6
CONTINUOUS
100
AcDbSpline
210
0.0
220
0.0
230
1.0
 70
     0
 71
     3
 72
     8
 73
     4
 74
     0
 42
0.0000001
 43
0.0000001
 40
0.0
 40
0.0
 40
0.0
 40
0.0
 40
1.0
 40
1.0
 40
1.0
 40
1.0
 10
131.2402892494150421
 20
31.4877295460056565
 30
0.0
 10
131.2630600369013791
 20
31.626387906296344
 30
0.0
 10
131.3479895474933699
 20
31.7076047770986307
 30
0.0
 10
131.4942553396139999
 20
31.7310467837570691
 30
0.0
  0
LINE
  5
BC
102
{ACAD_REACTORS
330
7D
102
}
100
AcDbEntity
  8
ENGRAVE
  6
CONTINUOUS
100
AcDbLine
 10
131.494255
 20
31.731047
 30
0.0
 11
137.595814
 21
30.728852
 31
0.0
  0
LINE
  5
BD
102
{ACAD_REACTORS
330
7D
102
}
100
AcDbEntity
  8
ENGRAVE
  6
CONTINUOUS
100
AcDbLine
 10
137.595814
 20
30.728852
 30
0.0
 11
138.355131
 21
35.351465
 31
0.0
  0
LINE
  5
BE
102
{ACAD_REACTORS
330
7D
102
}
100
AcDbEntity
  8
ENGRAVE
  6
CONTINUOUS
100
AcDbLine
 10
138.355131
 20
35.351465
 30
0.0
 11
130.727551
 21
36.60439
 31
0.0
  0
SPLINE
  5
BF
102
{ACAD_REACTORS
330
7D
102
}
100
AcDbEntity
  8
ENGRAVE
  6
CONTINUOUS
100
AcDbSpline
210
0.0
220
0.0
230
1.0
 70
     0
 71
     3
 72
     8
 73
     4
 74
     0
 42
0.0000001
 43
0.0000001
 40
0.0
 40
0.0
 40
0.0
 40
0.0
 40
1.0
 40
1.0
 40
1.0
 40
1.0
 10
130.7275511166490105
 20
36.6043903685413099
 30
0.0
 10
129.4486477924372139
 20
36.8144141905265627
 30
0.0
 10
128.2801258743610902
 20
36.5391162999824317
 30
0.0
 10
127.2217258427234157
 20
35.7793133259745915
 30
0.0
  0
SPLINE
  5
C0
102
{ACAD_REACTORS
330
7D
102
}
100
AcDbEntity
  8
ENGRAVE
  6
CONTINUOUS
100
AcDbSpline
210
0.0
220
0.0
230
1.0
 70
     0
 71
     3
 72
     8
 73
     4
 74
     0
 42
0.0000001
 43
0.0000001
 40
0.0
 40
0.0
 40
0.0
 40
0.0
 40
1.0
 40
1.0
 40
1.0
 40
1.0
 10
127.2217258427234157
 20
35.7793133259745915
 30
0.0
 10
126.1812657480175517
 20
35.0323770476203009
 30
0.0
 10
125.5561325267069037
 20
34.0194393994954396
 30
0.0
 10
125.3461014144594827
 20
32.7405446110840259
 30
0.0
  0
SPLINE
  5
C1
102
{ACAD_REACTORS
330
7D
102
}
100
AcDbEntity
  8
ENGRAVE
  6
CONTINUOUS
100
AcDbSpline
210
0.0
220
0.0
230
1.0
 70
     0
 71
     3
 72
     8
 73
     4
 74
     0
 42
0.0000001
 43
0.0000001
 40
0.0
 40
0.0
 40
0.0
 40
0.0
 40
1.0
 40
1.0
 40
1.0
 40
1.0
 10
125.3461014144594827
 20
32.7405446110840259
 30
0.0
 10
125.0525623948144727
 20
30.9531573965932019
 30
0.0
 10
125.7595052833478348
 20
29.3814669437276663
 30
0.0
 10
127.4672619887067953
 20
28.0249694080567373
 30
0.0
  0
LINE
  5
C2
102
{ACAD_REACTORS
330
7D
102
}
100
AcDbEntity
  8
ENGRAVE
  6
CONTINUOUS
100
AcDbLine
 10
127.467262
 20
28.024969
 30
0.0
 11
129.103018
 21
26.711772
 31
0.0
  0
SPLINE
  5
C3
102
{ACAD_REACTORS
330
7D
102
}
100
AcDbEntity
  8
ENGRAVE
  6
CONTINUOUS
100
AcDbSpline
210
0.0
220
0.0
230
1.0
 70
     0
 71
     3
 72
     8
 73
     4
 74
     0
 42
0.0000001
 43
0.0000001
 40
0.0
 40
0.0
 40
0.0
 40
0.0
 40
1.0
 40
1.0
 40
1.0
 40
1.0
 10
129.1030179970000802
 20
26.7117723791749881
 30
0.0
 10
129.1365900983722952
 20
26.6271476821237059
 30
0.0
 10
129.1473853657061568
 20
26.5463326119910263
 30
0.0
 10
129.1347328766870817
 20
26.4693003510659288
 30
0.0
  0
SPLINE
  5
C4
102
{ACAD_REACTORS
330
7D
102
}
100
AcDbEntity
  8
ENGRAVE
  6
CONTINUOUS
100
AcDbSpline
210
0.0
220
0.0
230
1.0
 70
     0
 71
     3
 72
     8
 73
     4
 74
     0
 42
0.0000001
 43
0.0000001
 40
0.0
 40
0.0
 40
0.0
 40
0.0
 40
1.0
 40
1.0
 40
1.0
 40
1.0
 10
129.1347328766870817
 20
26.4693003510659288
 30
0.0
 10
129.1119573756267584
 20
26.3306158215941579
 30
0.0
 10
129.0270720206495412
 20
26.2499262786179415
 30
0.0
 10
128.880804152632038
 20
26.2264578951887231
 30
0.0
  0
LINE
  5
C5
102
{ACAD_REACTORS
330
7D
102
}
100
AcDbEntity
  8
ENGRAVE
  6
CONTINUOUS
100
AcDbLine
 10
128.880804
 20
26.226458
 30
0.0
 11
121.958385
 21
27.363242
 31
0.0
  0
LINE
  5
C6
102
{ACAD_REACTORS
330
7D
102
}
100
AcDbEntity
  8
ENGRAVE
  6
CONTINUOUS
100
AcDbLine
 10
121.958385
 20
27.363242
 30
0.0
 11
124.50522
 21
37.850386
 31
0.0
  0
LINE
  5
C7
102
{ACAD_REACTORS
330
7D
102
}
100
AcDbEntity
  8
ENGRAVE
  6
CONTINUOUS
100
AcDbLine
 10
124.50522
 20
37.850386
 30
0.0
 11
118.359823
 21
39.342778
 31
0.0
  0
ENDSEC
  0
SECTION
  2
OBJECTS
  0
DICTIONARY
  5
C
100
AcDbDictionary
  3
ACAD_GROUP
350
D
  3
ACAD_MLINESTYLE
350
1B
  3
ACAD_SCALELIST
350
2C
  3
ACAD_VISUALSTYLE
350
51
  3
ACAD_MATERIAL
350
6A
  3
ACAD_TABLESTYLE
350
6E
  3
ACAD_MLEADERSTYLE
350
70
  0
DICTIONARY
  5
D
102
{ACAD_REACTORS
330
C
102
}
100
AcDbDictionary
  3
VISIOGROUP_0
350
7D
  0
DICTIONARY
  5
1B
102
{ACAD_REACTORS
330
C
102
}
100
AcDbDictionary
  3
STANDARD
350
1C
  0
MLINESTYLE
  5
1C
102
{ACAD_REACTORS
330
1B
102
}
100
AcDbMlineStyle
  2
STANDARD
 70
     0
  3

 62
   256
 51
90.0
 52
90.0
 71
     2
 49
0.5
 62
   256
  6
BYLAYER
 49
-0.5
 62
   256
  6
BYLAYER
  0
DICTIONARY
  5
29
102
{ACAD_REACTORS
330
C
102
}
100
AcDbDictionary
  0
DICTIONARY
  5
2C
102
{ACAD_REACTORS
330
C
102
}
100
AcDbDictionary
  3
A0
350
2D
  3
A1
350
2E
  3
A2
350
2F
  3
A3
350
30
  3
A4
350
31
  3
A5
350
32
  3
A6
350
33
  3
A7
350
34
  3
A8
350
35
  3
A9
350
36
  3
B0
350
37
  3
B1
350
38
  3
B2
350
39
  3
B3
350
3A
  3
B4
350
3B
  3
B5
350
3C
  3
B6
350
3D
  3
B7
350
3E
  3
B8
350
3F
  3
B9
350
40
  3
C0
350
41
  3
C1
350
42
  3
C2
350
43
  3
C3
350
44
  3
C4
350
45
  3
C5
350
46
  3
C6
350
47
  3
C7
350
48
  3
C8
350
49
  3
C9
350
4A
  3
D0
350
4B
  3
D1
350
4C
  3
D2
350
4D
  0
DICTIONARY
  5
4E
102
{ACAD_REACTORS
330
C
102
}
100
AcDbDictionary
  3
MODEL
350
4F
  3
LAYOUT1
350
50
  0
DICTIONARY
  5
51
102
{ACAD_REACTORS
330
C
102
}
100
AcDbDictionary
  3
FLAT
350
52
  3
FLATWITHEDGES
350
53
  3
GOURAUD
350
54
  3
GOURAUDWITHEDGES
350
55
  3
2DWIREFRAME
350
56
  3
WIREFRAME
350
57
  3
HIDDEN
350
58
  3
BASIC
350
59
  3
REALISTIC
350
5A
  3
CONCEPTUAL
350
5B
  3
DIM
350
5C
  3
BRIGHTEN
350
5D
  3
THICKEN
350
5E
  3
LINEPATTERN
350
5F
  3
FACEPATTERN
350
60
  3
COLORCHANGE
350
61
  3
JITTEROFF
350
62
  3
OVERHANGOFF
350
63
  3
EDGECOLOROFF
350
64
  3
SHADES OF GRAY
350
65
  3
SKETCHY
350
66
  3
X-RAY
350
67
  3
SHADED WITH EDGES
350
68
  3
SHADED
350
69
  0
DICTIONARY
  5
6A
102
{ACAD_REACTORS
330
C
102
}
100
AcDbDictionary
  3
BYLAYER
350
6B
  3
BYBLOCK
350
6C
  3
GLOBAL
350
6D
  0
DICTIONARY
  5
6E
102
{ACAD_REACTORS
330
C
102
}
100
AcDbDictionary
  3
STANDARD
350
6F
  0
DICTIONARY
  5
70
102
{ACAD_REACTORS
330
C
102
}
100
AcDbDictionary
  3
STANDARD
350
71
  0
GROUP
  5
7D
102
{ACAD_REACTORS
330
D
102
}
100
AcDbGroup
300
Group created by Visio.
 70
     0
 71
     1
340
7F
340
80
340
81
340
82
340
83
340
84
340
85
340
86
340
87
340
88
340
89
340
8A
340
8B
340
8C
340
8D
340
8E
340
8F
340
90
340
91
340
92
340
93
340
94
340
95
340
96
340
97
340
98
340
99
340
9A
340
9B
340
9C
340
9D
340
9E
340
9F
340
A0
340
A1
340
A2
340
A3
340
A4
340
A5
340
A6
340
A7
340
A8
340
A9
340
AA
340
AB
340
AC
340
AD
340
AE
340
AF
340
B0
340
B1
340
B2
340
B3
340
B4
340
B5
340
B6
340
B7
340
B8
340
B9
340
BA
340
BB
340
BC
340
BD
340
BE
340
BF
340
C0
340
C1
340
C2
340
C3
340
C4
340
C5
340
C6
340
C7
  0
ENDSEC
  0
EOF
