  0
SECTION
  2
HEADER
  9
$ACADVER
  1
AC1014
  9
$ACADMAINTVER
 70
     0
  9
$DWGCODEPAGE
  3
ANSI_1252
  9
$INSBASE
 10
0.0
 20
0.0
 30
0.0
  9
$EXTMIN
 10
0.0
 20
0.0
 30
0.0
  9
$EXTMAX
 10
304.0
 20
304.0
 30
0.0
  9
$LIMMIN
 10
0.0
 20
0.0
  9
$LIMMAX
 10
12.0
 20
9.0
  9
$ORTHOMODE
 70
     0
  9
$REGENMODE
 70
     1
  9
$FILLMODE
 70
     0
  9
$QTEXTMODE
 70
     0
  9
$MIRRTEXT
 70
     1
  9
$DRAGMODE
 70
     2
  9
$LTSCALE
 40
3.04
  9
$OSMODE
 70
    37
  9
$ATTMODE
 70
     1
  9
$TEXTSIZE
 40
0.2
  9
$TRACEWID
 40
0.05
  9
$TEXTSTYLE
  7
STANDARD
  9
$CLAYER
  8
0
  9
$CELTYPE
  6
BYLAYER
  9
$CECOLOR
 62
   256
  9
$CELTSCALE
 40
1.0
  9
$DELOBJ
 70
     1
  9
$DISPSILH
 70
     0
  9
$DIMSCALE
 40
1.0
  9
$DIMASZ
 40
0.18
  9
$DIMEXO
 40
0.0625
  9
$DIMDLI
 40
0.38
  9
$DIMRND
 40
0.0
  9
$DIMDLE
 40
0.0
  9
$DIMEXE
 40
0.18
  9
$DIMTP
 40
0.0
  9
$DIMTM
 40
0.0
  9
$DIMTXT
 40
0.18
  9
$DIMCEN
 40
0.09
  9
$DIMTSZ
 40
0.0
  9
$DIMTOL
 70
     0
  9
$DIMLIM
 70
     0
  9
$DIMTIH
 70
     0
  9
$DIMTOH
 70
     0
  9
$DIMSE1
 70
     0
  9
$DIMSE2
 70
     0
  9
$DIMTAD
 70
     1
  9
$DIMZIN
 70
     0
  9
$DIMBLK
  1

  9
$DIMASO
 70
     1
  9
$DIMSHO
 70
     1
  9
$DIMPOST
  1

  9
$DIMAPOST
  1

  9
$DIMALT
 70
     0
  9
$DIMALTD
 70
     2
  9
$DIMALTF
 40
25.4
  9
$DIMLFAC
 40
1.0
  9
$DIMTOFL
 70
     0
  9
$DIMTVP
 40
0.0
  9
$DIMTIX
 70
     0
  9
$DIMSOXD
 70
     0
  9
$DIMSAH
 70
     0
  9
$DIMBLK1
  1

  9
$DIMBLK2
  1

  9
$DIMSTYLE
  2
STANDARD
  9
$DIMCLRD
 70
     0
  9
$DIMCLRE
 70
     0
  9
$DIMCLRT
 70
     0
  9
$DIMTFAC
 40
1.0
  9
$DIMGAP
 40
0.09
  9
$DIMJUST
 70
     0
  9
$DIMSD1
 70
     0
  9
$DIMSD2
 70
     0
  9
$DIMTOLJ
 70
     1
  9
$DIMTZIN
 70
     0
  9
$DIMALTZ
 70
     0
  9
$DIMALTTZ
 70
     0
  9
$DIMFIT
 70
     5
  9
$DIMUPT
 70
     0
  9
$DIMUNIT
 70
     2
  9
$DIMDEC
 70
     2
  9
$DIMTDEC
 70
     4
  9
$DIMALTU
 70
     2
  9
$DIMALTTD
 70
     2
  9
$DIMTXSTY
  7
STANDARD
  9
$DIMAUNIT
 70
     0
  9
$LUNITS
 70
     2
  9
$LUPREC
 70
     4
  9
$SKETCHINC
 40
0.1
  9
$FILLETRAD
 40
0.5
  9
$AUNITS
 70
     0
  9
$AUPREC
 70
     0
  9
$MENU
  1
.
  9
$ELEVATION
 40
0.0
  9
$PELEVATION
 40
0.0
  9
$THICKNESS
 40
0.0
  9
$LIMCHECK
 70
     0
  9
$BLIPMODE
 70
     0
  9
$CHAMFERA
 40
0.5
  9
$CHAMFERB
 40
0.5
  9
$CHAMFERC
 40
1.0
  9
$CHAMFERD
 40
0.0
  9
$SKPOLY
 70
     0
  9
$TDCREATE
 40
2450772.666465926
  9
$TDUPDATE
 40
2459287.466504630
  9
$TDINDWG
 40
0.0011564931
  9
$TDUSRTIMER
 40
0.0011564931
  9
$USRTIMER
 70
     1
  9
$ANGBASE
 50
0.0
  9
$ANGDIR
 70
     0
  9
$PDMODE
 70
     0
  9
$PDSIZE
 40
0.0
  9
$PLINEWID
 40
0.0
  9
$COORDS
 70
     1
  9
$SPLFRAME
 70
     0
  9
$SPLINETYPE
 70
     6
  9
$SPLINESEGS
 70
     8
  9
$ATTDIA
 70
     0
  9
$ATTREQ
 70
     1
  9
$HANDLING
 70
     1
  9
$HANDSEED
  5
D2
  9
$SURFTAB1
 70
     6
  9
$SURFTAB2
 70
     6
  9
$SURFTYPE
 70
     6
  9
$SURFU
 70
     6
  9
$SURFV
 70
     6
  9
$UCSNAME
  2

  9
$UCSORG
 10
0.0
 20
0.0
 30
0.0
  9
$UCSXDIR
 10
1.0
 20
0.0
 30
0.0
  9
$UCSYDIR
 10
0.0
 20
1.0
 30
0.0
  9
$PUCSNAME
  2

  9
$PUCSORG
 10
0.0
 20
0.0
 30
0.0
  9
$PUCSXDIR
 10
1.0
 20
0.0
 30
0.0
  9
$PUCSYDIR
 10
0.0
 20
1.0
 30
0.0
  9
$USERI1
 70
     0
  9
$USERI2
 70
     0
  9
$USERI3
 70
     0
  9
$USERI4
 70
     0
  9
$USERI5
 70
     0
  9
$USERR1
 40
0.0
  9
$USERR2
 40
0.0
  9
$USERR3
 40
0.0
  9
$USERR4
 40
0.0
  9
$USERR5
 40
0.0
  9
$WORLDVIEW
 70
     1
  9
$SHADEDGE
 70
     3
  9
$SHADEDIF
 70
    70
  9
$TILEMODE
 70
     1
  9
$MAXACTVP
 70
    48
  9
$PINSBASE
 10
0.0
 20
0.0
 30
0.0
  9
$PLIMCHECK
 70
     0
  9
$PEXTMIN
 10
0.0
 20
0.0
 30
0.0
  9
$PEXTMAX
 10
0.0
 20
0.0
 30
0.0
  9
$PLIMMIN
 10
0.0
 20
0.0
  9
$PLIMMAX
 10
12.0
 20
9.0
  9
$UNITMODE
 70
     0
  9
$VISRETAIN
 70
     1
  9
$PLINEGEN
 70
     0
  9
$PSLTSCALE
 70
     1
  9
$TREEDEPTH
 70
  3020
  9
$PICKSTYLE
 70
     1
  9
$CMLSTYLE
  2
STANDARD
  9
$CMLJUST
 70
     0
  9
$CMLSCALE
 40
1.0
  9
$PROXYGRAPHICS
 70
     1
  9
$MEASUREMENT
 70
     0
  0
ENDSEC
  0
SECTION
  2
CLASSES
  0
CLASS
  1
LWPOLYLINE
  2
AcDbPolyline
  3
ObjectDBX Classes
 90
       20
280
     0
281
     1
  0
CLASS
  1
IMAGE
  2
AcDbRasterImage
  3
ISM
 90
       21
280
     0
281
     1
  0
CLASS
  1
OLE2FRAME
  2
AcDbOle2Frame
  3
ObjectDBX Classes
 90
       21
280
     0
281
     1
  0
CLASS
  1
HATCH
  2
AcDbHatch
  3
ObjectDBX Classes
 90
       20
280
     0
281
     1
  0
CLASS
  1
DICTIONARYVAR
  2
AcDbDictionaryVar
  3
ObjectDBX Classes
 90
       20
280
     0
281
     0
  0
CLASS
  1
RASTERVARIABLES
  2
AcDbRasterVariables
  3
ISM
 90
       21
280
     0
281
     0
  0
CLASS
  1
IMAGEDEF
  2
AcDbRasterImageDef
  3
ISM
 90
       21
280
     0
281
     0
  0
CLASS
  1
IMAGEDEF_REACTOR
  2
AcDbRasterImageDefReactor
  3
ISM
 90
       21
280
     0
281
     0
  0
CLASS
  1
IDBUFFER
  2
AcDbIdBuffer
  3
ObjectDBX Classes
 90
       20
280
     0
281
     0
  0
CLASS
  1
SPATIAL_FILTER
  2
AcDbSpatialFilter
  3
ObjectDBX Classes
 90
       20
280
     0
281
     0
  0
CLASS
  1
XRECORD
  2
AcDbXrecord
  3
ObjectDBX Classes
 90
       21
280
     0
281
     0
  0
CLASS
  1
ACDBDICTIONARYWDFLT
  2
AcDbDictionaryWithDefault
  3
ObjectDBX Classes
 90
       22
280
     0
281
     0
  0
CLASS
  1
SCALE
  2
AcDbScale
  3
ObjectDBX Classes
 90
       27
280
     0
281
     0
  0
CLASS
  1
VISUALSTYLE
  2
AcDbVisualStyle
  3
ObjectDBX Classes
 90
       26
280
     0
281
     0
  0
CLASS
  1
MATERIAL
  2
AcDbMaterial
  3
ObjectDBX Classes
 90
       23
280
     0
281
     0
  0
CLASS
  1
TABLESTYLE
  2
AcDbTableStyle
  3
ObjectDBX Classes
 90
       25
280
     0
281
     0
  0
CLASS
  1
MLEADERSTYLE
  2
AcDbMLeaderStyle
  3
ACDB_MLEADERSTYLE_CLASS
 90
       27
280
     0
281
     0
  0
CLASS
  1
SORTENTSTABLE
  2
AcDbSortentsTable
  3
"AutoCAD"
 90
        0
280
     0
281
     0
  0
CLASS
  1
LAYER_INDEX
  2
AcDbLayerIndex
  3
"Acad"
 90
        0
280
     0
281
     0
  0
CLASS
  1
SPATIAL_INDEX
  2
AcDbSpatialIndex
  3
"Acad"
 90
        0
280
     0
281
     0
  0
CLASS
  1
OBJECT_PTR
  2
CAseDLPNTableRecord
  3
"ASE-LPNTableRecord"
 90
        1
280
     0
281
     0
  0
CLASS
  1
LAYOUT
  2
AcDbLayout
  3
"AutoCAD 2000"
 90
        1
280
     0
281
     0
  0
CLASS
  1
PLOTSETTINGS
  2
AcDbPlotsettings
  3
"AutoCAD 2000"
 90
        1
280
     0
281
     0
  0
CLASS
  1
ACDBPLACEHOLDER
  2
AcDbPlaceholder
  3
"AutoCAD 2000"
 90
        1
280
     0
281
     0
  0
CLASS
  1
VBA_PROJECT
  2
AcDbVbaProject
  3
"AutoCAD 2000"
 90
        1
280
     0
281
     0
  0
CLASS
  1
WIPEOUT
  2
AcDbWipeout
  3
"AutoCAD 2000"
 90
        1
280
     0
281
     1
  0
CLASS
  1
WIPEOUTVARIABLES
  2
AcDbWipeoutVariables
  3
"AutoCAD 2000"
 90
        1
280
     0
281
     0
  0
CLASS
  1
RTEXT
  2
RText
  3
RText|AutoCAD Express Tool|expresstools@autodesk.com
 90
        1
280
     0
281
     1
  0
CLASS
  1
ARCALIGNEDTEXT
  2
AcDbArcAlignedText
  3
RText|AutoCAD Express Tool|expresstools@autodesk.com
 90
        1
280
     0
281
     1
  0
ENDSEC
  0
SECTION
  2
TABLES
  0
TABLE
  2
VPORT
  5
8
100
AcDbSymbolTable
 70
     1
  0
VPORT
  5
25
100
AcDbSymbolTableRecord
100
AcDbViewportTableRecord
  2
*ACTIVE
 70
     0
 10
0.0
 20
0.0
 11
1.0
 21
1.0
 12
152.0
 22
152.0
 13
0.0
 23
0.0
 14
0.5
 24
0.5
 15
0.5
 25
0.5
 16
0.0
 26
0.0
 36
1.0
 17
0.0
 27
0.0
 37
0.0
 40
304.0
 41
1.0
 42
50.0
 43
0.0
 44
0.0
 50
0.0
 51
0.0
 71
     0
 72
   100
 73
     1
 74
     1
 75
     0
 76
     0
 77
     0
 78
     0
  0
ENDTAB
  0
TABLE
  2
LTYPE
  5
5
100
AcDbSymbolTable
 70
     4
  0
LTYPE
  5
12
100
AcDbSymbolTableRecord
100
AcDbLinetypeTableRecord
  2
BYBLOCK
 70
     0
  3

 72
    65
 73
     0
 40
0.0
  0
LTYPE
  5
13
100
AcDbSymbolTableRecord
100
AcDbLinetypeTableRecord
  2
BYLAYER
 70
     0
  3

 72
    65
 73
     0
 40
0.0
  0
LTYPE
  5
14
100
AcDbSymbolTableRecord
100
AcDbLinetypeTableRecord
  2
CONTINUOUS
 70
     0
  3
Solid line
 72
    65
 73
     0
 40
0.0
  0
LTYPE
  5
7A
100
AcDbSymbolTableRecord
100
AcDbLinetypeTableRecord
  2
DASHED
 70
     0
  3
DASHED
 72
    65
 73
     2
 40
0.75
 49
0.5
 74
     0
 49
-0.25
 74
     0
  0
ENDTAB
  0
TABLE
  2
LAYER
  5
2
100
AcDbSymbolTable
 70
     4
  0
LAYER
  5
E
100
AcDbSymbolTableRecord
100
AcDbLayerTableRecord
  2
0
 70
     0
 62
     7
  6
CONTINUOUS
  0
LAYER
  5
74
100
AcDbSymbolTableRecord
100
AcDbLayerTableRecord
  2
CUT_OUTER
 70
     0
 62
    10
  6
CONTINUOUS
  0
LAYER
  5
76
100
AcDbSymbolTableRecord
100
AcDbLayerTableRecord
  2
CUT_MIDWAY
 70
     0
 62
     5
  6
CONTINUOUS
  0
LAYER
  5
78
100
AcDbSymbolTableRecord
100
AcDbLayerTableRecord
  2
CUT_FIRST
 70
     0
 62
    94
  6
CONTINUOUS
  0
ENDTAB
  0
TABLE
  2
STYLE
  5
3
100
AcDbSymbolTable
 70
     1
  0
STYLE
  5
F
100
AcDbSymbolTableRecord
100
AcDbTextStyleTableRecord
  2
STANDARD
 70
     0
 40
0.0
 41
1.0
 50
0.0
 71
     0
 42
0.2
  3
txt.shx
  4

  0
ENDTAB
  0
TABLE
  2
VIEW
  5
6
100
AcDbSymbolTable
 70
     0
  0
ENDTAB
  0
TABLE
  2
UCS
  5
7
100
AcDbSymbolTable
 70
     0
  0
ENDTAB
  0
TABLE
  2
APPID
  5
9
100
AcDbSymbolTable
 70
     1
  0
APPID
  5
10
100
AcDbSymbolTableRecord
100
AcDbRegAppTableRecord
  2
ACAD
 70
     0
  0
ENDTAB
  0
TABLE
  2
DIMSTYLE
  5
A
100
AcDbSymbolTable
 70
     1
  0
DIMSTYLE
105
1D
100
AcDbSymbolTableRecord
100
AcDbDimStyleTableRecord
  2
STANDARD
 70
     0
  3

  4

  5

  6

  7

 40
1.0
 41
0.18
 42
0.0625
 43
0.38
 44
0.18
 45
0.0
 46
0.0
 47
0.0
 48
0.0
 71
     0
 72
     0
 73
     1
 74
     1
 75
     0
 76
     0
 77
     0
 78
     0
140
0.18
141
0.09
142
0.0
143
25.4
144
1.0
145
0.0
146
1.0
147
0.09
170
     0
171
     2
172
     0
173
     0
174
     0
175
     0
176
     0
177
     0
178
     0
270
     2
271
     4
272
     4
273
     2
274
     2
275
     0
280
     0
281
     0
282
     0
283
     1
284
     0
285
     0
286
     0
287
     3
288
     0
340
F
  0
ENDTAB
  0
TABLE
  2
BLOCK_RECORD
  5
1
100
AcDbSymbolTable
 70
     6
  0
BLOCK_RECORD
  5
18
100
AcDbSymbolTableRecord
100
AcDbBlockTableRecord
  2
*MODEL_SPACE
  0
BLOCK_RECORD
  5
15
100
AcDbSymbolTableRecord
100
AcDbBlockTableRecord
  2
*PAPER_SPACE
  0
BLOCK_RECORD
  5
7F
100
AcDbSymbolTableRecord
100
AcDbBlockTableRecord
  2
CIRCLE
  0
BLOCK_RECORD
  5
83
100
AcDbSymbolTableRecord
100
AcDbBlockTableRecord
  2
RECTANGLE
  0
BLOCK_RECORD
  5
87
100
AcDbSymbolTableRecord
100
AcDbBlockTableRecord
  2
RIGHT_TRIANGLE
  0
BLOCK_RECORD
  5
8B
100
AcDbSymbolTableRecord
100
AcDbBlockTableRecord
  2
CELTIC_ORNAMENT
  0
BLOCK_RECORD
  5
C1
100
AcDbSymbolTableRecord
100
AcDbBlockTableRecord
  2
ARC_ORNAMENT
  0
BLOCK_RECORD
  5
CE
100
AcDbSymbolTableRecord
100
AcDbBlockTableRecord
  2
TRIANGLE
  0
ENDTAB
  0
ENDSEC
  0
SECTION
  2
BLOCKS
  0
BLOCK
  5
19
100
AcDbEntity
  8
0
100
AcDbBlockBegin
  2
*MODEL_SPACE
 70
     0
 10
0.0
 20
0.0
 30
0.0
  3
*MODEL_SPACE
  1

  0
ENDBLK
  5
1A
100
AcDbEntity
  8
0
100
AcDbBlockEnd
  0
BLOCK
  5
16
100
AcDbEntity
 67
     1
  8
0
100
AcDbBlockBegin
  2
*PAPER_SPACE
 70
     0
 10
0.0
 20
0.0
 30
0.0
  3
*PAPER_SPACE
  1

  0
ENDBLK
  5
17
100
AcDbEntity
 67
     1
  8
0
100
AcDbBlockEnd
  0
BLOCK
  5
80
100
AcDbEntity
  8
0
100
AcDbBlockBegin
  2
CIRCLE
 70
     0
 10
0.0
 20
0.0
 30
0.0
  3
CIRCLE
  1

  0
LWPOLYLINE
  5
81
102
{ACAD_REACTORS
330
92
102
}
100
AcDbEntity
  8
0
  6
CONTINUOUS
 62
     7
100
AcDbPolyline
 90
        2
 70
     1
 10
30.0
 20
50.0
 42
-1.0
 10
70.0
 20
50.0
 42
-1.0
  0
ENDBLK
  5
82
100
AcDbEntity
  8
0
100
AcDbBlockEnd
  0
BLOCK
  5
84
100
AcDbEntity
  8
0
100
AcDbBlockBegin
  2
RECTANGLE
 70
     0
 10
0.0
 20
0.0
 30
0.0
  3
RECTANGLE
  1

  0
LWPOLYLINE
  5
85
102
{ACAD_REACTORS
330
92
102
}
100
AcDbEntity
  8
0
  6
CONTINUOUS
 62
     7
100
AcDbPolyline
 90
        4
 70
     1
 10
30.0
 20
35.0
 10
70.0
 20
35.0
 10
70.0
 20
65.0
 10
30.0
 20
65.0
  0
ENDBLK
  5
86
100
AcDbEntity
  8
0
100
AcDbBlockEnd
  0
BLOCK
  5
88
100
AcDbEntity
  8
0
100
AcDbBlockBegin
  2
RIGHT_TRIANGLE
 70
     0
 10
0.0
 20
0.0
 30
0.0
  3
RIGHT_TRIANGLE
  1

  0
LWPOLYLINE
  5
89
102
{ACAD_REACTORS
330
92
102
}
100
AcDbEntity
  8
0
  6
CONTINUOUS
 62
     7
100
AcDbPolyline
 90
        3
 70
     1
 10
30.0
 20
35.0
 10
70.0
 20
35.0
 10
30.0
 20
65.0
  0
ENDBLK
  5
8A
100
AcDbEntity
  8
0
100
AcDbBlockEnd
  0
BLOCK
  5
8C
100
AcDbEntity
  8
0
100
AcDbBlockBegin
  2
CELTIC_ORNAMENT
 70
     0
 10
0.0
 20
0.0
 30
0.0
  3
CELTIC_ORNAMENT
  1

  0
LINE
  5
8D
102
{ACAD_REACTORS
330
92
102
}
100
AcDbEntity
  8
0
  6
CONTINUOUS
 62
     7
100
AcDbLine
 10
50.000001
 20
50.69012
 30
0.0
 11
48.656251
 21
49.881045
 31
0.0
  0
LINE
  5
8E
102
{ACAD_REACTORS
330
92
102
}
100
AcDbEntity
  8
0
  6
CONTINUOUS
 62
     7
100
AcDbLine
 10
48.656251
 20
49.881045
 30
0.0
 11
44.867462
 21
52.269666
 31
0.0
  0
ELLIPSE
  5
8F
102
{ACAD_REACTORS
330
92
102
}
100
AcDbEntity
  8
0
  6
CONTINUOUS
 62
     7
100
AcDbEllipse
 10
45.803581
 20
53.422948
 30
0.0
 11
0.0
 21
-1.4902531497917844
 31
0.0
210
0.0
220
0.0
230
1.0
 40
0.991842
 41
1.8172487142980456
 42
5.5973393853922673
  0
ELLIPSE
  5
90
102
{ACAD_REACTORS
330
92
102
}
100
AcDbEntity
  8
0
  6
CONTINUOUS
 62
     7
100
AcDbEllipse
 10
46.734915
 20
53.425209
 30
0.0
 11
0.0
 21
-0.6219416406388342
 31
0.0
210
0.0
220
0.0
230
1.0
 40
0.991842
 41
2.1906760023312266
 42
5.5764035027466656
  0
LINE
  5
91
102
{ACAD_REACTORS
330
92
102
}
100
AcDbEntity
  8
0
  6
CONTINUOUS
 62
     7
100
AcDbLine
 10
46.334328
 20
52.95225
 30
0.0
 11
50.000001
 21
50.69012
 31
0.0
  0
HATCH
  5
92
100
AcDbEntity
  8
0
 62
   252
100
AcDbHatch
 10
0.0
 20
0.0
 30
0.0
210
0.0
220
0.0
230
1.0
  2
SOLID
 70
     1
 71
     1
 91
        5
 92
        1
 93
        5
 72
     1
 10
50.0000006879125394
 20
50.6901202972941931
 11
48.6562506879125749
 21
49.8810453427228921
 72
     1
 10
48.6562506879125749
 20
49.8810453427228921
 11
44.8674619770059522
 21
52.2696655036928917
 72
     3
 10
45.8035807126538472
 20
53.4229479436630825
 11
1.4780949343138816
 21
0.0
 40
1.008226
 50
129.296077
 51
345.879318
 73
     0
 72
     3
 10
46.7349152328359878
 20
53.4252086262536068
 11
0.6168675359589523
 21
0.0
 40
1.008226
 50
35.516489
 51
229.504386
 73
     1
 72
     1
 10
46.3343277205329471
 20
52.9522495768382058
 11
50.0000006879125394
 21
50.6901202972941931
 97
        8
330
81
330
85
330
89
330
8D
330
8E
330
8F
330
90
330
91
 92
        1
 93
        5
 72
     1
 10
53.6875006879124967
 20
51.4991952518655012
 11
52.4062506879124896
 21
52.2460336714697959
 72
     1
 10
52.4062506879124896
 20
52.2460336714697959
 11
53.4987631707360052
 21
53.03904848338329
 72
     3
 10
53.0981756584329219
 20
53.5120075327987053
 11
0.6168675359589795
 21
0.0
 40
1.008226
 50
310.495614
 51
144.483511
 73
     1
 72
     3
 10
54.0295101786150482
 20
53.5097468502082023
 11
1.4780949343138512
 21
0.0
 40
1.008226
 50
194.120682
 51
50.703923
 73
     0
 72
     1
 10
54.9656289142628793
 20
52.3564644102379901
 11
53.6875006879124967
 21
51.4991952518655012
 97
        5
330
93
330
94
330
95
330
96
330
97
 92
        3
 72
     0
 73
     1
 93
        4
 10
47.4843756879125252
 20
49.196443458085696
 10
51.3750006879125394
 20
51.5147543856073042
 10
52.6406256879124754
 20
50.7367976985194957
 10
48.7343756879126033
 20
48.4340459047396976
 97
        1
330
98
 92
        1
 93
        5
 72
     1
 10
46.3986919026818825
 20
48.5154564991430988
 11
47.7635805713971777
 21
47.7191089800984969
 72
     1
 10
47.7635805713971777
 20
47.7191089800984969
 11
46.6882447866151225
 21
47.0863206234987928
 72
     3
 10
47.0888322989181844
 20
46.6133615740833775
 11
0.6168675359589837
 21
0.0
 40
1.008226
 50
130.495614
 51
324.483511
 73
     1
 72
     3
 10
46.1574977787360083
 20
46.615622256673845
 11
1.4780949343139138
 21
0.0
 40
1.008226
 50
14.120682
 51
230.703923
 73
     0
 72
     1
 10
45.2213790430881346
 20
47.7689046966440998
 11
46.3986919026818825
 21
48.5154564991430988
 97
        5
330
99
330
9A
330
9B
330
9C
330
9D
 92
        1
 93
        5
 72
     1
 10
50.0000006879125394
 20
49.1808843243439
 11
51.3437506879125038
 21
49.9588410114316943
 72
     1
 10
51.3437506879125038
 20
49.9588410114316943
 11
55.0527660667701468
 21
47.6435345387444968
 72
     3
 10
54.1166468486301753
 20
46.4902528649502713
 11
1.4780946517962397
 21
0.0
 40
1.008226
 50
309.29611
 51
165.879285
 73
     0
 72
     3
 10
53.1853119969818948
 20
46.4879940970121055
 11
0.6168684181316753
 21
0.0
 40
1.008226
 50
215.516734
 51
49.50415
 73
     1
 72
     1
 10
53.5859020082576549
 20
46.9609521644739019
 11
50.0000006879125394
 21
49.1808843243439
 97
        5
330
9E
330
9F
330
A0
330
A1
330
A2
 75
     0
 76
     1
 98
        0
  0
LINE
  5
93
102
{ACAD_REACTORS
330
92
102
}
100
AcDbEntity
  8
0
  6
CONTINUOUS
 62
     7
100
AcDbLine
 10
53.687501
 20
51.499195
 30
0.0
 11
52.406251
 21
52.246034
 31
0.0
  0
LINE
  5
94
102
{ACAD_REACTORS
330
92
102
}
100
AcDbEntity
  8
0
  6
CONTINUOUS
 62
     7
100
AcDbLine
 10
52.406251
 20
52.246034
 30
0.0
 11
53.498763
 21
53.039048
 31
0.0
  0
ELLIPSE
  5
95
102
{ACAD_REACTORS
330
92
102
}
100
AcDbEntity
  8
0
  6
CONTINUOUS
 62
     7
100
AcDbEllipse
 10
53.098176
 20
53.512008
 30
0.0
 11
0.0
 21
-0.6219416406388616
 31
0.0
210
0.0
220
0.0
230
1.0
 40
0.991842
 41
0.7067818044329548
 42
4.0925093048481944
  0
ELLIPSE
  5
96
102
{ACAD_REACTORS
330
92
102
}
100
AcDbEntity
  8
0
  6
CONTINUOUS
 62
     7
100
AcDbEllipse
 10
54.02951
 20
53.509747
 30
0.0
 11
0.0
 21
-1.4902531497917533
 31
0.0
210
0.0
220
0.0
230
1.0
 40
0.991842
 41
0.6858459217872926
 42
4.46593659288148
  0
LINE
  5
97
102
{ACAD_REACTORS
330
92
102
}
100
AcDbEntity
  8
0
  6
CONTINUOUS
 62
     7
100
AcDbLine
 10
54.965629
 20
52.356464
 30
0.0
 11
53.687501
 21
51.499195
 31
0.0
  0
LWPOLYLINE
  5
98
102
{ACAD_REACTORS
330
92
102
}
100
AcDbEntity
  8
0
  6
CONTINUOUS
 62
     7
100
AcDbPolyline
 90
        4
 70
     1
 10
47.484376
 20
49.196443
 10
51.375001
 20
51.514754
 10
52.640626
 20
50.736798
 10
48.734376
 20
48.434046
  0
LINE
  5
99
102
{ACAD_REACTORS
330
92
102
}
100
AcDbEntity
  8
0
  6
CONTINUOUS
 62
     7
100
AcDbLine
 10
46.398692
 20
48.515456
 30
0.0
 11
47.763581
 21
47.719109
 31
0.0
  0
LINE
  5
9A
102
{ACAD_REACTORS
330
92
102
}
100
AcDbEntity
  8
0
  6
CONTINUOUS
 62
     7
100
AcDbLine
 10
47.763581
 20
47.719109
 30
0.0
 11
46.688245
 21
47.086321
 31
0.0
  0
ELLIPSE
  5
9B
102
{ACAD_REACTORS
330
92
102
}
100
AcDbEntity
  8
0
  6
CONTINUOUS
 62
     7
100
AcDbEllipse
 10
47.088832
 20
46.613362
 30
0.0
 11
0.0
 21
-0.6219416406388659
 31
0.0
210
0.0
220
0.0
230
1.0
 40
0.991842
 41
3.8483744580227084
 42
0.9509166512584227
  0
ELLIPSE
  5
9C
102
{ACAD_REACTORS
330
92
102
}
100
AcDbEntity
  8
0
  6
CONTINUOUS
 62
     7
100
AcDbEllipse
 10
46.157498
 20
46.615622
 30
0.0
 11
0.0
 21
-1.4902531497918163
 31
0.0
210
0.0
220
0.0
230
1.0
 40
0.991842
 41
3.827438575377089
 42
1.3243439392917393
  0
LINE
  5
9D
102
{ACAD_REACTORS
330
92
102
}
100
AcDbEntity
  8
0
  6
CONTINUOUS
 62
     7
100
AcDbLine
 10
45.221379
 20
47.768905
 30
0.0
 11
46.398692
 21
48.515456
 31
0.0
  0
LINE
  5
9E
102
{ACAD_REACTORS
330
92
102
}
100
AcDbEntity
  8
0
  6
CONTINUOUS
 62
     7
100
AcDbLine
 10
50.000001
 20
49.180884
 30
0.0
 11
51.343751
 21
49.958841
 31
0.0
  0
LINE
  5
9F
102
{ACAD_REACTORS
330
92
102
}
100
AcDbEntity
  8
0
  6
CONTINUOUS
 62
     7
100
AcDbLine
 10
51.343751
 20
49.958841
 30
0.0
 11
55.052766
 21
47.643535
 31
0.0
  0
ELLIPSE
  5
A0
102
{ACAD_REACTORS
330
92
102
}
100
AcDbEntity
  8
0
  6
CONTINUOUS
 62
     7
100
AcDbEllipse
 10
54.116647
 20
46.490253
 30
0.0
 11
0.0
 21
-1.4902528649502658
 31
0.0
210
0.0
220
0.0
230
1.0
 40
0.991842
 41
4.9588419461150579
 42
2.4557461535753018
  0
ELLIPSE
  5
A1
102
{ACAD_REACTORS
330
92
102
}
100
AcDbEntity
  8
0
  6
CONTINUOUS
 62
     7
100
AcDbEllipse
 10
53.185312
 20
46.487994
 30
0.0
 11
0.0
 21
-0.6219425300679556
 31
0.0
210
0.0
220
0.0
230
1.0
 40
0.991842
 41
5.3322729309206505
 42
2.4348067432143692
  0
LINE
  5
A2
102
{ACAD_REACTORS
330
92
102
}
100
AcDbEntity
  8
0
  6
CONTINUOUS
 62
     7
100
AcDbLine
 10
53.585902
 20
46.960952
 30
0.0
 11
50.000001
 21
49.180884
 31
0.0
  0
LWPOLYLINE
  5
A3
102
{ACAD_REACTORS
330
A4
102
}
100
AcDbEntity
  8
0
  6
CONTINUOUS
 62
     7
100
AcDbPolyline
 90
        6
 70
     1
 10
44.980297
 20
49.311804
 10
50.000001
 20
46.037939
 10
52.484376
 20
47.624971
 10
51.187501
 20
48.434046
 10
50.000001
 20
47.656089
 10
46.171875
 20
50.0
  0
HATCH
  5
A4
100
AcDbEntity
  8
0
 62
   252
100
AcDbHatch
 10
0.0
 20
0.0
 30
0.0
210
0.0
220
0.0
230
1.0
  2
SOLID
 70
     1
 71
     1
 91
        4
 92
        3
 72
     0
 73
     1
 93
        6
 10
44.9802972849650047
 20
49.3118040181877433
 10
50.0000006879125038
 20
46.0379393085092445
 10
52.4843756879123191
 20
47.6249709501683256
 10
51.1875006879122978
 20
48.4340459047396195
 10
50.0000006879125038
 20
47.6560892176518394
 10
46.1718749760784064
 20
49.9999999999999645
 97
        1
330
A3
 92
        3
 72
     0
 73
     1
 93
        6
 10
55.0937506879123262
 20
50.7056794310359464
 10
50.0000006879125038
 20
54.0042157842881494
 10
47.312500687912582
 20
52.3393884739202946
 10
48.7343756879123546
 20
51.4836361181237265
 10
49.9687506879124044
 20
52.3860658751455617
 10
53.8750006879124328
 20
50.0055184126569401
 97
        1
330
A5
 92
        1
 93
       13
 72
     1
 10
47.3437499760782643
 20
50.7187500000000071
 11
43.7459685912602509
 21
48.6171001728806118
 72
     3
 10
41.3555652978371953
 20
52.103968437668442
 11
-0.0000000000000355
 21
-4.2387105838648589
 40
0.991842
 50
325.348412
 51
7.797274
 73
     0
 72
     3
 10
41.1757430204272339
 20
50.0624584906975016
 11
-0.0000000000000184
 21
-2.1936398330757152
 40
0.991842
 50
10.340623
 51
171.478125
 73
     0
 72
     3
 10
41.5952678263996631
 20
48.5741825966314096
 11
-0.0000000000000313
 21
-3.7334052298270732
 40
0.991842
 50
168.441683
 51
213.640254
 73
     0
 72
     1
 10
43.6466133989403247
 20
51.6823628185062063
 11
43.7147435883961109
 21
51.6594670840759562
 72
     1
 10
43.7147435883961109
 20
51.6594670840759562
 11
45.031902537661388
 21
50.8351951614675386
 72
     1
 10
45.031902537661388
 20
50.8351951614675386
 11
43.8737112221021732
 21
50.1254053087596105
 72
     3
 10
22.32223653466869
 20
11.0130008101956083
 11
-0.0000000000003748
 21
-44.7428060757198409
 40
0.991842
 50
150.945805
 51
153.005234
 73
     1
 72
     3
 10
41.6141401272022051
 20
48.763676383674273
 11
-0.0000000000000191
 21
-2.2847675261597078
 40
0.991842
 50
157.927306
 51
194.80688
 73
     1
 72
     3
 10
41.3644143203155181
 20
50.055328772765094
 11
-0.0000000000000082
 21
-0.9755205043153526
 40
0.991842
 50
199.904513
 51
349.854036
 73
     1
 72
     3
 10
41.5637385070699708
 20
51.0276431719283323
 11
-0.0000000000000165
 21
-1.9682100558069637
 40
0.991842
 50
349.081369
 51
36.157364
 73
     1
 72
     1
 10
42.7155182215281926
 20
49.4385111904819112
 11
46.140625687912511
 21
51.4680769843819803
 72
     1
 10
46.140625687912511
 20
51.4680769843819803
 11
47.3437499760782643
 21
50.7187500000000071
 97
       13
330
A6
330
A7
330
A8
330
A9
330
AA
330
AB
330
AC
330
AD
330
AE
330
AF
330
B0
330
B1
330
B2
 92
        1
 93
       13
 72
     3
 10
130.581519155034556
 20
-84.734437727164277
 11
-1.6473453105894922
 21
-155.3707268642069153
 40
0.991841
 50
148.946269
 51
150.552089
 73
     0
 72
     3
 10
58.6444366927803884
 20
47.8792598025198402
 11
4.2041385084572847
 21
0.0
 40
1.008226
 50
235.348495
 51
277.797252
 73
     0
 72
     3
 10
58.8242576435617792
 20
49.9207802284093489
 11
2.1757423803596931
 21
0.0
 40
1.008226
 50
280.340654
 51
81.478095
 73
     0
 72
     3
 10
58.4047336129951375
 20
51.4090716973389661
 11
-0.0000000000000313
 21
-3.7334197240492184
 40
0.991842
 50
348.441725
 51
33.640133
 73
     0
 72
     1
 10
56.3533865991601957
 20
48.3008750326141083
 11
56.2852580947189551
 21
48.3237724659189922
 72
     1
 10
56.2852580947189551
 20
48.3237724659189922
 11
54.9531256879124399
 21
49.1497660568603791
 72
     3
 10
128.3064620665443272
 20
-73.0734662737918086
 11
-1.4711733611177897
 21
-142.8601508687160617
 40
0.991841
 50
148.229818
 51
148.782635
 73
     0
 72
     3
 10
77.6746430939251127
 20
88.9642791513164468
 11
-0.0000000000003747
 21
-44.7360677819026975
 40
0.991842
 50
330.945622
 51
333.00536
 73
     1
 72
     3
 10
58.3858609131043167
 20
51.2195688850822322
 11
-0.0000000000000191
 21
-2.2847732206454356
 40
0.991842
 50
337.927335
 51
14.806859
 73
     1
 72
     3
 10
58.6355885435846105
 20
49.9279100099564204
 11
0.9675606124443625
 21
0.0
 40
1.008226
 50
289.904462
 51
79.854095
 73
     1
 72
     3
 10
58.4362579535704327
 20
48.9556103374265419
 11
1.952138173561297
 21
0.0
 40
1.008226
 50
79.081132
 51
126.15748
 73
     1
 72
     3
 10
153.8528852201172299
 20
-119.1397786780987218
 11
-0.2485545180770072
 21
-195.6347636286386091
 40
0.991842
 50
209.919733
 51
211.130421
 73
     1
 72
     1
 10
53.7500006879122836
 20
48.4496050384813799
 11
52.5000006879124896
 21
49.2120025918273996
 97
       13
330
B3
330
B4
330
B5
330
B6
330
B7
330
B8
330
B9
330
BA
330
BB
330
BC
330
BD
330
BE
330
BF
 75
     0
 76
     1
 98
        0
  0
LWPOLYLINE
  5
A5
102
{ACAD_REACTORS
330
A4
102
}
100
AcDbEntity
  8
0
  6
CONTINUOUS
 62
     7
100
AcDbPolyline
 90
        6
 70
     1
 10
55.093751
 20
50.705679
 10
50.000001
 20
54.004216
 10
47.312501
 20
52.339388
 10
48.734376
 20
51.483636
 10
49.968751
 20
52.386066
 10
53.875001
 20
50.005518
  0
LINE
  5
A6
102
{ACAD_REACTORS
330
A4
102
}
100
AcDbEntity
  8
0
  6
CONTINUOUS
 62
     7
100
AcDbLine
 10
47.34375
 20
50.71875
 30
0.0
 11
43.745969
 21
48.6171
 31
0.0
  0
ELLIPSE
  5
A7
102
{ACAD_REACTORS
330
A4
102
}
100
AcDbEntity
  8
0
  6
CONTINUOUS
 62
     7
100
AcDbEllipse
 10
41.355565
 20
52.103968
 30
0.0
 11
-0.0000000000000355
 21
-4.2387105838648589
 31
0.0
210
0.0
220
0.0
230
1.0
 40
0.991842
 41
-0.1360881052052263
 42
0.6047843058074057
  0
ELLIPSE
  5
A8
102
{ACAD_REACTORS
330
A4
102
}
100
AcDbEntity
  8
0
  6
CONTINUOUS
 62
     7
100
AcDbEllipse
 10
41.175743
 20
50.062458
 30
0.0
 11
-0.0000000000000184
 21
-2.1936398330757152
 31
0.0
210
0.0
220
0.0
230
1.0
 40
0.991842
 41
-2.9928578718844663
 42
-0.1804779234124131
  0
ELLIPSE
  5
A9
102
{ACAD_REACTORS
330
A4
102
}
100
AcDbEntity
  8
0
  6
CONTINUOUS
 62
     7
100
AcDbEllipse
 10
41.595268
 20
48.574183
 30
0.0
 11
-0.0000000000000313
 21
-3.7334052298270732
 31
0.0
210
0.0
220
0.0
230
1.0
 40
0.991842
 41
2.5544594584305691
 42
3.3433233392808401
  0
LINE
  5
AA
102
{ACAD_REACTORS
330
A4
102
}
100
AcDbEntity
  8
0
  6
CONTINUOUS
 62
     7
100
AcDbLine
 10
43.646613
 20
51.682363
 30
0.0
 11
43.714744
 21
51.659467
 31
0.0
  0
LINE
  5
AB
102
{ACAD_REACTORS
330
A4
102
}
100
AcDbEntity
  8
0
  6
CONTINUOUS
 62
     7
100
AcDbLine
 10
43.714744
 20
51.659467
 30
0.0
 11
45.031903
 21
50.835195
 31
0.0
  0
LINE
  5
AC
102
{ACAD_REACTORS
330
A4
102
}
100
AcDbEntity
  8
0
  6
CONTINUOUS
 62
     7
100
AcDbLine
 10
45.031903
 20
50.835195
 30
0.0
 11
43.873711
 21
50.125405
 31
0.0
  0
ELLIPSE
  5
AD
102
{ACAD_REACTORS
330
A4
102
}
100
AcDbEntity
  8
0
  6
CONTINUOUS
 62
     7
100
AcDbEllipse
 10
22.322237
 20
11.013001
 30
0.0
 11
-0.0000000000003748
 21
-44.7428060757198409
 31
0.0
210
0.0
220
0.0
230
1.0
 40
0.991842
 41
2.6345012831740724
 42
2.6704451048764701
  0
ELLIPSE
  5
AE
102
{ACAD_REACTORS
330
A4
102
}
100
AcDbEntity
  8
0
  6
CONTINUOUS
 62
     7
100
AcDbEllipse
 10
41.61414
 20
48.763676
 30
0.0
 11
-0.0000000000000191
 21
-2.2847675261597078
 31
0.0
210
0.0
220
0.0
230
1.0
 40
0.991842
 41
-3.5268338416979783
 42
-2.8831638426262982
  0
ELLIPSE
  5
AF
102
{ACAD_REACTORS
330
A4
102
}
100
AcDbEntity
  8
0
  6
CONTINUOUS
 62
     7
100
AcDbEllipse
 10
41.364414
 20
50.055329
 30
0.0
 11
-0.0000000000000082
 21
-0.9755205043153526
 31
0.0
210
0.0
220
0.0
230
1.0
 40
0.991842
 41
-2.7941933726086949
 42
-0.1770804738315407
  0
ELLIPSE
  5
B0
102
{ACAD_REACTORS
330
A4
102
}
100
AcDbEntity
  8
0
  6
CONTINUOUS
 62
     7
100
AcDbEllipse
 10
41.563739
 20
51.027643
 30
0.0
 11
-0.0000000000000165
 21
-1.9682100558069637
 31
0.0
210
0.0
220
0.0
230
1.0
 40
0.991842
 41
-0.1905660554987271
 42
0.6310650447963621
  0
LINE
  5
B1
102
{ACAD_REACTORS
330
A4
102
}
100
AcDbEntity
  8
0
  6
CONTINUOUS
 62
     7
100
AcDbLine
 10
42.715518
 20
49.438511
 30
0.0
 11
46.140626
 21
51.468077
 31
0.0
  0
LINE
  5
B2
102
{ACAD_REACTORS
330
A4
102
}
100
AcDbEntity
  8
0
  6
CONTINUOUS
 62
     7
100
AcDbLine
 10
46.140626
 20
51.468077
 30
0.0
 11
47.34375
 21
50.71875
 31
0.0
  0
ELLIPSE
  5
B3
102
{ACAD_REACTORS
330
A4
102
}
100
AcDbEntity
  8
0
  6
CONTINUOUS
 62
     7
100
AcDbEllipse
 10
130.581519
 20
-84.734438
 30
0.0
 11
-1.6473453105894922
 21
-155.3707268642069153
 31
0.0
210
0.0
220
0.0
230
1.0
 40
0.991841
 41
-2.6276296559887276
 42
-2.5996027950807998
  0
ELLIPSE
  5
B4
102
{ACAD_REACTORS
330
A4
102
}
100
AcDbEntity
  8
0
  6
CONTINUOUS
 62
     7
100
AcDbEllipse
 10
58.644437
 20
47.87926
 30
0.0
 11
0.0
 21
-4.2387200638758022
 31
0.0
210
0.0
220
0.0
230
1.0
 40
0.991842
 41
3.0055049284675857
 42
3.7463755024614778
  0
ELLIPSE
  5
B5
102
{ACAD_REACTORS
330
A4
102
}
100
AcDbEntity
  8
0
  6
CONTINUOUS
 62
     7
100
AcDbEllipse
 10
58.824258
 20
49.92078
 30
0.0
 11
0.0
 21
-2.1936391636249128
 31
0.0
210
0.0
220
0.0
230
1.0
 40
0.991842
 41
0.1487353010666914
 42
2.9611141983562783
  0
ELLIPSE
  5
B6
102
{ACAD_REACTORS
330
A4
102
}
100
AcDbEntity
  8
0
  6
CONTINUOUS
 62
     7
100
AcDbEllipse
 10
58.404734
 20
51.409072
 30
0.0
 11
-0.0000000000000313
 21
-3.7334197240492184
 31
0.0
210
0.0
220
0.0
230
1.0
 40
0.991842
 41
-0.587131079361741
 42
0.2017299588941417
  0
LINE
  5
B7
102
{ACAD_REACTORS
330
A4
102
}
100
AcDbEntity
  8
0
  6
CONTINUOUS
 62
     7
100
AcDbLine
 10
56.353387
 20
48.300875
 30
0.0
 11
56.285258
 21
48.323772
 31
0.0
  0
LINE
  5
B8
102
{ACAD_REACTORS
330
A4
102
}
100
AcDbEntity
  8
0
  6
CONTINUOUS
 62
     7
100
AcDbLine
 10
56.285258
 20
48.323772
 30
0.0
 11
54.953126
 21
49.149766
 31
0.0
  0
ELLIPSE
  5
B9
102
{ACAD_REACTORS
330
A4
102
}
100
AcDbEntity
  8
0
  6
CONTINUOUS
 62
     7
100
AcDbEllipse
 10
128.306462
 20
-73.073466
 30
0.0
 11
-1.4711733611177897
 21
-142.8601508687160617
 31
0.0
210
0.0
220
0.0
230
1.0
 40
0.991841
 41
-2.5967468572087524
 42
-2.5870983733403232
  0
ELLIPSE
  5
BA
102
{ACAD_REACTORS
330
A4
102
}
100
AcDbEntity
  8
0
  6
CONTINUOUS
 62
     7
100
AcDbEllipse
 10
77.674643
 20
88.964279
 30
0.0
 11
-0.0000000000003747
 21
-44.7360677819026975
 31
0.0
210
0.0
220
0.0
230
1.0
 40
0.991842
 41
-0.5070945572904284
 42
-0.4711453545563442
  0
ELLIPSE
  5
BB
102
{ACAD_REACTORS
330
A4
102
}
100
AcDbEntity
  8
0
  6
CONTINUOUS
 62
     7
100
AcDbEllipse
 10
58.385861
 20
51.219569
 30
0.0
 11
-0.0000000000000191
 21
-2.2847732206454356
 31
0.0
210
0.0
220
0.0
230
1.0
 40
0.991842
 41
-0.3852406737259554
 42
0.2584284455343243
  0
ELLIPSE
  5
BC
102
{ACAD_REACTORS
330
A4
102
}
100
AcDbEntity
  8
0
  6
CONTINUOUS
 62
     7
100
AcDbEllipse
 10
58.635589
 20
49.92791
 30
0.0
 11
0.0
 21
-0.9755193775689439
 31
0.0
210
0.0
220
0.0
230
1.0
 40
0.991842
 41
0.3473984012877116
 42
2.9645132128216245
  0
ELLIPSE
  5
BD
102
{ACAD_REACTORS
330
A4
102
}
100
AcDbEntity
  8
0
  6
CONTINUOUS
 62
     7
100
AcDbEllipse
 10
58.436258
 20
48.95561
 30
0.0
 11
0.0
 21
-1.9681956783979742
 31
0.0
210
0.0
220
0.0
230
1.0
 40
0.991842
 41
2.9510224643487311
 42
3.7726597229735366
  0
ELLIPSE
  5
BE
102
{ACAD_REACTORS
330
A4
102
}
100
AcDbEntity
  8
0
  6
CONTINUOUS
 62
     7
100
AcDbEllipse
 10
153.852885
 20
-119.139779
 30
0.0
 11
-0.2485545180770072
 21
-195.6347636286386091
 31
0.0
210
0.0
220
0.0
230
1.0
 40
0.991842
 41
-2.6193947950791343
 42
-2.5982643142354567
  0
LINE
  5
BF
102
{ACAD_REACTORS
330
A4
102
}
100
AcDbEntity
  8
0
  6
CONTINUOUS
 62
     7
100
AcDbLine
 10
53.750001
 20
48.449605
 30
0.0
 11
52.500001
 21
49.212003
 31
0.0
  0
ENDBLK
  5
C0
100
AcDbEntity
  8
0
100
AcDbBlockEnd
  0
BLOCK
  5
C2
100
AcDbEntity
  8
0
100
AcDbBlockBegin
  2
ARC_ORNAMENT
 70
     0
 10
0.0
 20
0.0
 30
0.0
  3
ARC_ORNAMENT
  1

  0
ELLIPSE
  5
C3
102
{ACAD_REACTORS
330
C5
102
}
100
AcDbEntity
  8
0
  6
CONTINUOUS
 62
     7
100
AcDbEllipse
 10
175.262124
 20
53.70891
 30
0.0
 11
71.5435729692789693
 21
12.2291668854556779
 31
0.0
210
0.0
220
0.0
230
1.0
 40
0.950029
 41
1.2398369370094391
 42
2.4583550345905767
  0
ELLIPSE
  5
C4
102
{ACAD_REACTORS
330
C5
102
}
100
AcDbEntity
  8
0
  6
CONTINUOUS
 62
     7
100
AcDbEllipse
 10
180.223342
 20
43.731338
 30
0.0
 11
81.2539753788484234
 21
13.8889963664706571
 31
0.0
210
0.0
220
0.0
230
1.0
 40
0.950029
 41
1.3210215373736476
 42
2.3771704342263678
  0
HATCH
  5
C5
100
AcDbEntity
  8
0
 62
     7
100
AcDbHatch
 10
0.0
 20
0.0
 30
0.0
210
0.0
220
0.0
230
1.0
  2
SOLID
 70
     1
 71
     1
 91
        1
 92
        1
 93
        2
 72
     3
 10
175.2621236361465833
 20
53.7089096088230491
 11
71.5435729692789693
 21
12.2291668854556779
 40
0.950029
 50
219.146632
 51
288.962576
 73
     0
 72
     3
 10
180.2233424454018689
 20
43.7313379779525491
 11
81.2539753788484234
 21
13.8889963664706571
 40
0.950029
 50
75.688959
 51
136.201833
 73
     1
 97
        2
330
C3
330
C4
 75
     0
 76
     1
 98
        0
  0
ELLIPSE
  5
C6
102
{ACAD_REACTORS
330
C7
102
}
100
AcDbEntity
  8
0
  6
CONTINUOUS
 62
     7
100
AcDbEllipse
 10
123.879324
 20
101.625367
 30
0.0
 11
4.6935589079543005
 21
0.0
 31
0.0
210
0.0
220
0.0
230
1.0
 40
0.947101
 41
0.0
 42
6.2831853071796004
  0
HATCH
  5
C7
100
AcDbEntity
  8
0
 62
     7
100
AcDbHatch
 10
0.0
 20
0.0
 30
0.0
210
0.0
220
0.0
230
1.0
  2
SOLID
 70
     1
 71
     1
 91
        1
 92
        1
 93
        1
 72
     3
 10
123.8793243383413341
 20
101.6253672151468379
 11
4.6935589079543005
 21
0.0
 40
0.947101
 50
0.0
 51
360.0
 73
     1
 97
        1
330
C6
 75
     0
 76
     1
 98
        0
  0
ELLIPSE
  5
C8
102
{ACAD_REACTORS
330
C9
102
}
100
AcDbEntity
  8
0
  6
CONTINUOUS
 62
     7
100
AcDbEllipse
 10
123.879324
 20
101.625367
 30
0.0
 11
4.3415419898577268
 21
0.0
 31
0.0
210
0.0
220
0.0
230
1.0
 40
0.947101
 41
0.0
 42
6.2831853071796004
  0
HATCH
  5
C9
100
AcDbEntity
  8
0
 62
   254
100
AcDbHatch
 10
0.0
 20
0.0
 30
0.0
210
0.0
220
0.0
230
1.0
  2
SOLID
 70
     1
 71
     1
 91
        1
 92
        1
 93
        1
 72
     3
 10
123.8793243383413198
 20
101.6253672151467811
 11
4.3415419898577268
 21
0.0
 40
0.947101
 50
0.0
 51
360.0
 73
     1
 97
        1
330
C8
 75
     0
 76
     1
 98
        0
  0
LWPOLYLINE
  5
CA
102
{ACAD_REACTORS
330
CB
102
}
100
AcDbEntity
  8
0
  6
CONTINUOUS
 62
     7
100
AcDbPolyline
 90
        3
 70
     1
 10
121.634579
 20
99.885912
 10
124.032375
 20
103.905986
 10
126.430172
 20
99.885912
  0
HATCH
  5
CB
100
AcDbEntity
  8
0
 62
   252
100
AcDbHatch
 10
0.0
 20
0.0
 30
0.0
210
0.0
220
0.0
230
1.0
  2
SOLID
 70
     1
 71
     1
 91
        1
 92
        3
 72
     0
 73
     1
 93
        3
 10
121.6345787736675703
 20
99.8859120665985643
 10
124.0323751722963692
 20
103.9059861876878301
 10
126.4301715709252107
 20
99.8859120665985643
 97
        1
330
CA
 75
     0
 76
     1
 98
        0
  0
ELLIPSE
  5
CC
100
AcDbEntity
  8
0
  6
CONTINUOUS
 62
     7
100
AcDbEllipse
 10
123.373956
 20
101.586713
 30
0.0
 11
1.7393777129477952
 21
0.0
 31
0.0
210
0.0
220
0.0
230
1.0
 40
0.958376
 41
0.0
 42
6.2831853071796004
  0
ENDBLK
  5
CD
100
AcDbEntity
  8
0
100
AcDbBlockEnd
  0
BLOCK
  5
CF
100
AcDbEntity
  8
0
100
AcDbBlockBegin
  2
TRIANGLE
 70
     0
 10
0.0
 20
0.0
 30
0.0
  3
TRIANGLE
  1

  0
LWPOLYLINE
  5
D0
100
AcDbEntity
  8
0
  6
CONTINUOUS
 62
     7
100
AcDbPolyline
 90
        3
 70
     1
 10
70.0
 20
30.0
 10
50.0
 20
70.0
 10
30.0
 20
30.0
  0
ENDBLK
  5
D1
100
AcDbEntity
  8
0
100
AcDbBlockEnd
  0
ENDSEC
  0
SECTION
  2
ENTITIES
  0
LWPOLYLINE
  5
75
100
AcDbEntity
  8
CUT_OUTER
  6
CONTINUOUS
100
AcDbPolyline
 90
        2
 70
     1
 10
92.0
 20
152.0
 42
-1.0
 10
212.0
 20
152.0
 42
-1.0
  0
LWPOLYLINE
  5
77
100
AcDbEntity
  8
CUT_MIDWAY
  6
CONTINUOUS
100
AcDbPolyline
 90
       32
 70
     1
 10
204.181188
 20
169.381704
 42
0.236177
 10
169.381704
 20
204.181188
 42
-0.054544
 10
169.5
 20
203.099999
 10
169.5
 20
198.1
 42
-0.414214
 10
164.5
 20
193.1
 10
139.499999
 20
193.1
 42
-0.414214
 10
134.499999
 20
198.1
 10
134.499999
 20
203.099999
 42
-0.054543
 10
134.618296
 20
204.181188
 42
0.236177
 10
99.818812
 20
169.381705
 42
-0.054544
 10
100.9
 20
169.500001
 10
105.899999
 20
169.500001
 42
-0.414213
 10
110.899999
 20
164.500001
 10
110.899999
 20
139.5
 42
-0.414214
 10
105.899999
 20
134.5
 10
100.9
 20
134.5
 42
-0.054544
 10
99.818812
 20
134.618296
 42
0.236177
 10
134.618295
 20
99.818812
 42
-0.054544
 10
134.499999
 20
100.9
 10
134.499999
 20
105.899999
 42
-0.414213
 10
139.499999
 20
110.899999
 10
164.5
 20
110.899999
 42
-0.414214
 10
169.5
 20
105.899999
 10
169.5
 20
100.9
 42
-0.054544
 10
169.381704
 20
99.818812
 42
0.236177
 10
204.181188
 20
134.618296
 42
-0.054544
 10
203.099999
 20
134.5
 10
198.1
 20
134.5
 42
-0.414214
 10
193.1
 20
139.5
 10
193.1
 20
164.500001
 42
-0.414214
 10
198.1
 20
169.500001
 10
203.099999
 20
169.500001
 42
-0.054543
  0
LWPOLYLINE
  5
79
100
AcDbEntity
  8
CUT_FIRST
  6
CONTINUOUS
100
AcDbPolyline
 90
        4
 70
     1
 10
144.5
 20
199.415
 10
159.5
 20
199.415
 10
159.5
 20
205.585
 10
144.5
 20
205.585
  0
LWPOLYLINE
  5
7B
100
AcDbEntity
  8
0
  6
DASHED
 62
   251
100
AcDbPolyline
 90
        2
 70
     1
 10
131.0
 20
152.0
 42
-1.0
 10
173.0
 20
152.0
 42
-1.0
  0
LWPOLYLINE
  5
7C
100
AcDbEntity
  8
CUT_FIRST
  6
CONTINUOUS
100
AcDbPolyline
 90
        4
 70
     1
 10
144.5
 20
98.414999
 10
159.5
 20
98.414999
 10
159.5
 20
104.584999
 10
144.5
 20
104.584999
  0
LWPOLYLINE
  5
7D
100
AcDbEntity
  8
CUT_FIRST
  6
CONTINUOUS
100
AcDbPolyline
 90
        4
 70
     1
 10
199.415
 20
159.5
 10
199.415
 20
144.5
 10
205.585
 20
144.5
 10
205.585
 20
159.5
  0
LWPOLYLINE
  5
7E
100
AcDbEntity
  8
CUT_FIRST
  6
CONTINUOUS
100
AcDbPolyline
 90
        4
 70
     1
 10
98.415
 20
159.5
 10
98.415
 20
144.5
 10
104.585
 20
144.5
 10
104.585
 20
159.5
  0
ENDSEC
  0
SECTION
  2
OBJECTS
  0
DICTIONARY
  5
C
100
AcDbDictionary
  3
ACAD_GROUP
350
D
  3
ACAD_MLINESTYLE
350
1B
  3
ACAD_SCALELIST
350
2C
  3
ACAD_VISUALSTYLE
350
51
  3
ACAD_MATERIAL
350
6A
  3
ACAD_TABLESTYLE
350
6E
  3
ACAD_MLEADERSTYLE
350
70
  0
DICTIONARY
  5
D
102
{ACAD_REACTORS
330
C
102
}
100
AcDbDictionary
  0
DICTIONARY
  5
1B
102
{ACAD_REACTORS
330
C
102
}
100
AcDbDictionary
  3
STANDARD
350
1C
  0
MLINESTYLE
  5
1C
102
{ACAD_REACTORS
330
1B
102
}
100
AcDbMlineStyle
  2
STANDARD
 70
     0
  3

 62
   256
 51
90.0
 52
90.0
 71
     2
 49
0.5
 62
   256
  6
BYLAYER
 49
-0.5
 62
   256
  6
BYLAYER
  0
DICTIONARY
  5
29
102
{ACAD_REACTORS
330
C
102
}
100
AcDbDictionary
  0
DICTIONARY
  5
2C
102
{ACAD_REACTORS
330
C
102
}
100
AcDbDictionary
  3
A0
350
2D
  3
A1
350
2E
  3
A2
350
2F
  3
A3
350
30
  3
A4
350
31
  3
A5
350
32
  3
A6
350
33
  3
A7
350
34
  3
A8
350
35
  3
A9
350
36
  3
B0
350
37
  3
B1
350
38
  3
B2
350
39
  3
B3
350
3A
  3
B4
350
3B
  3
B5
350
3C
  3
B6
350
3D
  3
B7
350
3E
  3
B8
350
3F
  3
B9
350
40
  3
C0
350
41
  3
C1
350
42
  3
C2
350
43
  3
C3
350
44
  3
C4
350
45
  3
C5
350
46
  3
C6
350
47
  3
C7
350
48
  3
C8
350
49
  3
C9
350
4A
  3
D0
350
4B
  3
D1
350
4C
  3
D2
350
4D
  0
DICTIONARY
  5
4E
102
{ACAD_REACTORS
330
C
102
}
100
AcDbDictionary
  3
MODEL
350
4F
  3
LAYOUT1
350
50
  0
DICTIONARY
  5
51
102
{ACAD_REACTORS
330
C
102
}
100
AcDbDictionary
  3
FLAT
350
52
  3
FLATWITHEDGES
350
53
  3
GOURAUD
350
54
  3
GOURAUDWITHEDGES
350
55
  3
2DWIREFRAME
350
56
  3
WIREFRAME
350
57
  3
HIDDEN
350
58
  3
BASIC
350
59
  3
REALISTIC
350
5A
  3
CONCEPTUAL
350
5B
  3
DIM
350
5C
  3
BRIGHTEN
350
5D
  3
THICKEN
350
5E
  3
LINEPATTERN
350
5F
  3
FACEPATTERN
350
60
  3
COLORCHANGE
350
61
  3
JITTEROFF
350
62
  3
OVERHANGOFF
350
63
  3
EDGECOLOROFF
350
64
  3
SHADES OF GRAY
350
65
  3
SKETCHY
350
66
  3
X-RAY
350
67
  3
SHADED WITH EDGES
350
68
  3
SHADED
350
69
  0
DICTIONARY
  5
6A
102
{ACAD_REACTORS
330
C
102
}
100
AcDbDictionary
  3
BYLAYER
350
6B
  3
BYBLOCK
350
6C
  3
GLOBAL
350
6D
  0
DICTIONARY
  5
6E
102
{ACAD_REACTORS
330
C
102
}
100
AcDbDictionary
  3
STANDARD
350
6F
  0
DICTIONARY
  5
70
102
{ACAD_REACTORS
330
C
102
}
100
AcDbDictionary
  3
STANDARD
350
71
  0
ENDSEC
  0
EOF
